<svg width="24" height="24" viewBox="0 0 24 24" fill="none" xmlns="http://www.w3.org/2000/svg">
<path d="M12.37 16.3351H12.3333V14.6684H13.2966C13.385 14.6684 13.4698 14.6333 13.5323 14.5708C13.5948 14.5083 13.6299 14.4235 13.6299 14.3351C13.6299 14.2467 13.5948 14.1619 13.5323 14.0994C13.4698 14.0369 13.385 14.0018 13.2966 14.0018H12.3333V13.0018C12.3333 12.9134 12.2982 12.8287 12.2357 12.7661C12.1732 12.7036 12.0884 12.6685 12 12.6685C11.9116 12.6685 11.8268 12.7036 11.7643 12.7661C11.7018 12.8287 11.6667 12.9134 11.6667 13.0018V14.0018H11.63C11.4211 13.9821 11.2105 14.0062 11.0115 14.0726C10.8125 14.139 10.6295 14.2463 10.4744 14.3875C10.3192 14.5287 10.1953 14.7007 10.1104 14.8926C10.0256 15.0845 9.98181 15.292 9.98181 15.5017C9.98181 15.7115 10.0256 15.919 10.1104 16.1109C10.1953 16.3028 10.3192 16.4748 10.4744 16.616C10.6295 16.7572 10.8125 16.8645 11.0115 16.9309C11.2105 16.9973 11.4211 17.0214 11.63 17.0017H11.6667V18.6683H10.7034C10.615 18.6683 10.5302 18.7034 10.4677 18.7659C10.4052 18.8284 10.37 18.9132 10.37 19.0016C10.37 19.09 10.4052 19.1748 10.4677 19.2373C10.5302 19.2998 10.615 19.3349 10.7034 19.3349H11.6667V20.3349C11.6667 20.4233 11.7018 20.5081 11.7643 20.5706C11.8268 20.6331 11.9116 20.6682 12 20.6682C12.0884 20.6682 12.1732 20.6331 12.2357 20.5706C12.2982 20.5081 12.3333 20.4233 12.3333 20.3349V19.3349H12.37C12.5788 19.3547 12.7895 19.3305 12.9885 19.2641C13.1875 19.1977 13.3704 19.0905 13.5256 18.9493C13.6807 18.8081 13.8047 18.636 13.8895 18.4441C13.9743 18.2523 14.0182 18.0448 14.0182 17.835C14.0182 17.6252 13.9743 17.4177 13.8895 17.2259C13.8047 17.034 13.6807 16.8619 13.5256 16.7207C13.3704 16.5795 13.1875 16.4723 12.9885 16.4059C12.7895 16.3395 12.5788 16.3153 12.37 16.3351ZM11.63 16.3351C11.3921 16.3507 11.1577 16.272 10.9774 16.1161C10.7971 15.9601 10.6855 15.7394 10.6667 15.5017C10.6855 15.2641 10.7971 15.0434 10.9774 14.8874C11.1577 14.7315 11.3921 14.6528 11.63 14.6684H11.6667V16.3351H11.63ZM12.37 18.6683H12.3333V17.0017H12.37C12.4902 16.983 12.6131 16.9906 12.7301 17.0239C12.8472 17.0571 12.9557 17.1154 13.0481 17.1945C13.1405 17.2737 13.2147 17.3719 13.2655 17.4825C13.3164 17.5931 13.3428 17.7133 13.3428 17.835C13.3428 17.9567 13.3164 18.0769 13.2655 18.1875C13.2147 18.298 13.1405 18.3963 13.0481 18.4754C12.9557 18.5546 12.8472 18.6128 12.7301 18.6461C12.6131 18.6794 12.4902 18.687 12.37 18.6683Z" fill="#04949D"/>
<path d="M21.443 7.90538L16.0232 7.66872C15.9558 7.66556 15.8891 7.68289 15.8318 7.71843C15.7745 7.75397 15.7294 7.80605 15.7023 7.86779C15.6752 7.92953 15.6675 7.99804 15.6802 8.06426C15.6928 8.13047 15.7253 8.1913 15.7732 8.2387L16.4832 8.94534L14.9999 10.4286V6.33544H15.9999C16.067 6.33524 16.1325 6.31477 16.1878 6.2767C16.2431 6.23864 16.2857 6.18475 16.3098 6.12211C16.3345 6.05971 16.3397 5.99133 16.3248 5.92591C16.3099 5.8605 16.2757 5.80109 16.2265 5.75546L12.2267 2.08893C12.165 2.03176 12.0841 2 12 2C11.9159 2 11.835 2.03176 11.7733 2.08893L7.77349 5.75546C7.72432 5.80109 7.69006 5.8605 7.67519 5.92591C7.66032 5.99133 7.66554 6.05971 7.69016 6.12211C7.71433 6.18475 7.75686 6.23864 7.81217 6.2767C7.86748 6.31477 7.933 6.33524 8.00015 6.33544H9.00011V10.4286L7.51683 8.94534L8.22681 8.2387C8.27441 8.19127 8.30656 8.13056 8.31905 8.06454C8.33154 7.99851 8.32379 7.93025 8.2968 7.86871C8.26914 7.8047 8.22211 7.75098 8.16231 7.7151C8.10252 7.67922 8.03298 7.663 7.96348 7.66872L2.54368 7.90538C2.45528 7.90538 2.3705 7.9405 2.30799 8.00301C2.24548 8.06552 2.21036 8.1503 2.21036 8.2387L2.00037 13.6452C1.9972 13.7125 2.01454 13.7792 2.05008 13.8365C2.08562 13.8938 2.1377 13.939 2.19944 13.9661C2.26118 13.9931 2.32968 14.0009 2.3959 13.9882C2.46212 13.9755 2.52294 13.9431 2.57035 13.8952L3.27699 13.1852L6.66686 16.5817C6.66686 16.6117 6.66686 16.6384 6.66686 16.6684C6.66686 18.0828 7.22874 19.4393 8.2289 20.4395C9.22906 21.4396 10.5856 22.0015 12 22.0015C13.4144 22.0015 14.7709 21.4396 15.7711 20.4395C16.7713 19.4393 17.3331 18.0828 17.3331 16.6684C17.3331 16.6384 17.3331 16.6117 17.3331 16.5817L20.723 13.1852L21.4297 13.8952C21.4771 13.9431 21.5379 13.9755 21.6041 13.9882C21.6703 14.0009 21.7388 13.9931 21.8006 13.9661C21.8623 13.939 21.9144 13.8938 21.9499 13.8365C21.9855 13.7792 22.0028 13.7125 21.9996 13.6452L21.763 8.22537C21.7597 8.14155 21.7249 8.06206 21.6656 8.00275C21.6063 7.94344 21.5268 7.90867 21.443 7.90538ZM8.85678 5.6688L12 2.7889L15.1432 5.6688H14.6666C14.5782 5.6688 14.4934 5.70391 14.4309 5.76642C14.3684 5.82893 14.3332 5.91371 14.3332 6.00212V11.8786C14.013 11.7233 13.678 11.6005 13.3333 11.5119V6.00212C13.3333 5.91371 13.2982 5.82893 13.2357 5.76642C13.1731 5.70391 13.0884 5.6688 13 5.6688C12.9116 5.6688 12.8268 5.70391 12.7643 5.76642C12.7018 5.82893 12.6666 5.91371 12.6666 6.00212V11.3819C12.2244 11.3197 11.7756 11.3197 11.3334 11.3819V6.00212C11.3334 5.91371 11.2982 5.82893 11.2357 5.76642C11.1732 5.70391 11.0884 5.6688 11 5.6688C10.9116 5.6688 10.8269 5.70391 10.7643 5.76642C10.7018 5.82893 10.6667 5.91371 10.6667 6.00212V11.5119C10.322 11.6005 9.987 11.7233 9.66675 11.8786V6.00212C9.66675 5.91371 9.63163 5.82893 9.56912 5.76642C9.50662 5.70391 9.42183 5.6688 9.33343 5.6688H8.85678ZM3.52364 12.4785C3.49266 12.4473 3.45579 12.4225 3.41517 12.4056C3.37456 12.3887 3.33099 12.3799 3.28699 12.3799C3.24298 12.3799 3.19942 12.3887 3.1588 12.4056C3.11818 12.4225 3.08132 12.4473 3.05033 12.4785L2.71701 12.8119L2.90367 8.55536L7.16018 8.3687L6.82686 8.70202C6.79561 8.733 6.77082 8.76987 6.7539 8.81049C6.73697 8.85111 6.72826 8.89467 6.72826 8.93867C6.72826 8.98268 6.73697 9.02624 6.7539 9.06686C6.77082 9.10748 6.79561 9.14435 6.82686 9.17533L9.00011 11.3686V12.2619C8.41527 12.6608 7.91571 13.1722 7.53057 13.7663C7.14543 14.3603 6.88241 15.025 6.75686 15.7218L3.52364 12.4785ZM12 21.3349C11.0771 21.3349 10.1748 21.0612 9.40743 20.5484C8.64003 20.0357 8.04192 19.3069 7.68872 18.4542C7.33552 17.6015 7.24311 16.6632 7.42317 15.758C7.60323 14.8528 8.04767 14.0213 8.70029 13.3687C9.35291 12.7161 10.1844 12.2716 11.0896 12.0916C11.9948 11.9115 12.9331 12.0039 13.7858 12.3571C14.6385 12.7103 15.3673 13.3084 15.88 14.0758C16.3928 14.8432 16.6665 15.7454 16.6665 16.6684C16.6665 17.906 16.1748 19.093 15.2997 19.9681C14.4246 20.8432 13.2376 21.3349 12 21.3349ZM20.9597 12.4785C20.9287 12.4473 20.8918 12.4225 20.8512 12.4056C20.8106 12.3887 20.767 12.3799 20.723 12.3799C20.679 12.3799 20.6354 12.3887 20.5948 12.4056C20.5542 12.4225 20.5173 12.4473 20.4864 12.4785L17.2431 15.7218C17.1176 15.025 16.8546 14.3603 16.4694 13.7663C16.0843 13.1722 15.5847 12.6608 14.9999 12.2619V11.3686L17.1898 9.182C17.2211 9.15101 17.2458 9.11415 17.2628 9.07353C17.2797 9.03291 17.2884 8.98934 17.2884 8.94534C17.2884 8.90134 17.2797 8.85777 17.2628 8.81715C17.2458 8.77654 17.2211 8.73967 17.1898 8.70868L16.8565 8.37536L21.113 8.56202L21.2997 12.8185L20.9597 12.4785Z" fill="#04949D"/>
</svg>
