<svg width="24" height="24" viewBox="0 0 24 24" fill="none" xmlns="http://www.w3.org/2000/svg">
<path d="M20.248 6.26963C20.5003 6.26963 20.4452 6.26963 21.9496 4.70171C22.036 4.61197 22.0845 4.49026 22.0845 4.36335C22.0845 4.23644 22.036 4.11472 21.9496 4.02498C21.8633 3.93524 21.7461 3.88483 21.624 3.88483C21.5019 3.88483 21.3847 3.93524 21.2983 4.02498L19.9224 5.4547C19.8577 5.52136 19.8136 5.60652 19.7956 5.69933C19.7777 5.79214 19.7868 5.8884 19.8217 5.97582C19.8567 6.06324 19.9159 6.13788 19.9918 6.19021C20.0677 6.24253 20.1569 6.27018 20.248 6.26963Z" fill="#04949D"/>
<path d="M20.5737 12.1267C20.4874 12.037 20.3702 11.9866 20.2481 11.9866C20.1259 11.9866 20.0088 12.037 19.9224 12.1267C19.8361 12.2165 19.7875 12.3382 19.7875 12.4651C19.7875 12.592 19.8361 12.7137 19.9224 12.8035C21.3535 14.2856 21.358 14.3714 21.6241 14.3714C21.7152 14.3719 21.8044 14.3443 21.8803 14.292C21.9562 14.2396 22.0154 14.165 22.0503 14.0776C22.0853 13.9901 22.0943 13.8939 22.0764 13.8011C22.0585 13.7083 22.0144 13.6231 21.9497 13.5564L20.5737 12.1267Z" fill="#04949D"/>
<path d="M22.5414 8.65247H20.7067C20.5851 8.65247 20.4684 8.70268 20.3824 8.79205C20.2964 8.88142 20.248 9.00264 20.248 9.12904C20.248 9.25543 20.2964 9.37665 20.3824 9.46602C20.4684 9.5554 20.5851 9.60561 20.7067 9.60561H22.5414C22.663 9.60561 22.7797 9.5554 22.8657 9.46602C22.9517 9.37665 23 9.25543 23 9.12904C23 9.00264 22.9517 8.88142 22.8657 8.79205C22.7797 8.70268 22.663 8.65247 22.5414 8.65247Z" fill="#04949D"/>
<path d="M18.4134 12.8654V10.9591C18.802 10.8494 19.1451 10.6098 19.3897 10.2774C19.6343 9.9449 19.7669 9.53805 19.7669 9.11957C19.7669 8.70109 19.6343 8.29424 19.3897 7.96179C19.1451 7.62933 18.802 7.38975 18.4134 7.28V3.88682C18.4092 3.46331 18.2694 3.0533 18.0161 2.7215C17.7627 2.38971 17.4103 2.15502 17.0143 2.05449C16.6183 1.95395 16.2014 1.99329 15.8294 2.1663C15.4573 2.33931 15.1513 2.63613 14.9596 3.00992C14.5589 3.56429 14.0424 4.017 13.4489 4.33399C12.8555 4.65097 12.2005 4.82396 11.5334 4.83996H5.11217C4.57687 4.84068 4.05867 5.03596 3.64737 5.39195C3.23606 5.74794 2.95757 6.24222 2.86015 6.78914C2.33668 6.89375 1.86464 7.18458 1.52517 7.61161C1.1857 8.03865 1 8.57523 1 9.1291C1 9.68298 1.1857 10.2196 1.52517 10.6466C1.86464 11.0736 2.33668 11.3645 2.86015 11.4691C2.94494 11.9421 3.1656 12.3775 3.49307 12.7177C3.82055 13.058 4.2395 13.2872 4.69479 13.3754C4.95463 13.6374 5.10459 13.9952 5.11217 14.3714C4.61682 21.0434 4.58013 20.6812 4.77735 20.9004C4.97458 21.1196 4.84156 21.0434 8.78147 21.0434C8.90311 21.0434 9.01978 20.9932 9.10579 20.9038C9.19181 20.8144 9.24013 20.6932 9.24013 20.5668V15.3245H10.6161C10.7378 15.3245 10.8544 15.2743 10.9404 15.1849C11.0265 15.0956 11.0748 14.9744 11.0748 14.848V13.4182C11.8557 13.351 12.6397 13.5024 13.3452 13.8567C12.65 14.5757 12.195 15.5073 12.0469 16.5148C11.8988 17.5222 12.0655 18.5525 12.5224 19.4543C12.9793 20.3562 13.7024 21.082 14.5856 21.5254C15.4688 21.9688 16.4655 22.1063 17.4294 21.9177C18.3933 21.7292 19.2737 21.2246 19.9413 20.4779C20.6089 19.7312 21.0285 18.7818 21.1386 17.7691C21.2487 16.7564 21.0434 15.7337 20.5529 14.8511C20.0624 13.9685 19.3125 13.2726 18.4134 12.8654ZM18.4134 9.94881V8.3094C18.5502 8.39379 18.6636 8.51374 18.7424 8.65746C18.8212 8.80118 18.8626 8.96372 18.8626 9.1291C18.8626 9.29449 18.8212 9.45703 18.7424 9.60074C18.6636 9.74446 18.5502 9.86441 18.4134 9.94881ZM16.5787 2.93367C16.822 2.93367 17.0553 3.03409 17.2274 3.21284C17.3994 3.39159 17.496 3.63403 17.496 3.88682V12.5604C16.8905 12.4341 16.2669 12.4341 15.6614 12.5604V3.88682C15.6614 3.63403 15.758 3.39159 15.9301 3.21284C16.1021 3.03409 16.3354 2.93367 16.5787 2.93367ZM2.81887 7.78041V10.4778C2.5501 10.3796 2.3173 10.1971 2.15262 9.95547C1.98794 9.71389 1.8995 9.42514 1.8995 9.1291C1.8995 8.83306 1.98794 8.54432 2.15262 8.30274C2.3173 8.06115 2.5501 7.87865 2.81887 7.78041ZM3.73619 11.0354V7.22282C3.73619 6.84363 3.88116 6.47998 4.13921 6.21186C4.39725 5.94373 4.74724 5.7931 5.11217 5.7931H7.40548V12.4651H5.11217C4.74724 12.4651 4.39725 12.3145 4.13921 12.0464C3.88116 11.7782 3.73619 11.4146 3.73619 11.0354ZM8.32281 20.0902H5.60753C6.06619 13.9425 6.13499 14.1331 5.83686 13.4182H8.32281V20.0902ZM10.1575 14.3714H9.24013V13.4182H10.1575V14.3714ZM8.32281 12.4651V5.7931C11.3821 5.7931 12.9966 6.08381 14.7441 4.59214V12.8654C14.5286 12.9662 14.3202 13.0824 14.1203 13.2133C12.57 12.2363 11.3591 12.4651 8.32281 12.4651ZM16.5787 21.0434C16.0489 21.0438 15.5253 20.925 15.0439 20.6952C14.5625 20.4654 14.1347 20.13 13.7899 19.712C13.4451 19.294 13.1915 18.8035 13.0466 18.274C12.9016 17.7445 12.8687 17.1887 12.9501 16.6447C13.0316 16.1008 13.2254 15.5816 13.5183 15.1229C13.8113 14.6642 14.1963 14.2769 14.647 13.9875C15.0977 13.6981 15.6033 13.5136 16.1292 13.4466C16.655 13.3796 17.1886 13.4317 17.6933 13.5993C17.7622 13.6537 17.8453 13.6853 17.9318 13.6899C18.7234 14.0182 19.3804 14.6226 19.7898 15.3994C20.1992 16.1762 20.3356 17.0769 20.1756 17.9468C20.0155 18.8167 19.569 19.6015 18.9126 20.1666C18.2563 20.7317 17.4311 21.0417 16.5787 21.0434Z" fill="#04949D"/>
<path d="M17.5878 15.0386L14.8359 18.8512C14.7848 18.922 14.7536 19.0062 14.746 19.0943C14.7383 19.1825 14.7545 19.2711 14.7926 19.3502C14.8307 19.4294 14.8892 19.496 14.9617 19.5425C15.0341 19.589 15.1176 19.6137 15.2028 19.6137C15.5239 19.6137 15.3679 19.7042 18.3217 15.6105C18.3947 15.5094 18.426 15.3823 18.4088 15.2571C18.3916 15.132 18.3273 15.0191 18.23 14.9433C18.1327 14.8674 18.0103 14.8349 17.8899 14.8528C17.7695 14.8706 17.6608 14.9375 17.5878 15.0386Z" fill="#04949D"/>
<path d="M15.2027 16.7542C15.7093 16.7542 16.12 16.3275 16.12 15.8011C16.12 15.2747 15.7093 14.848 15.2027 14.848C14.6961 14.848 14.2854 15.2747 14.2854 15.8011C14.2854 16.3275 14.6961 16.7542 15.2027 16.7542Z" fill="#04949D"/>
<path d="M17.9547 19.6137C18.4613 19.6137 18.872 19.1869 18.872 18.6605C18.872 18.1341 18.4613 17.7074 17.9547 17.7074C17.4481 17.7074 17.0374 18.1341 17.0374 18.6605C17.0374 19.1869 17.4481 19.6137 17.9547 19.6137Z" fill="#04949D"/>
</svg>
