<svg width="232" height="34" viewBox="0 0 232 34" fill="none" xmlns="http://www.w3.org/2000/svg">
<path d="M56.1993 26.7706C50.2247 29.2982 43.7044 30.5212 37.8117 30.5212C29.0544 30.5212 20.5699 28.1295 13.695 24.1343C13.0948 23.781 12.6583 24.4061 13.1494 24.8409C19.5059 30.5756 27.9086 34 37.2661 34C43.9227 34 51.6706 31.9073 56.9904 27.9936C57.8361 27.3685 57.0995 26.3901 56.1993 26.7706Z" fill="#F8992D"/>
<path d="M52.8163 24.5693C52.3526 24.8954 52.4344 25.3575 52.9527 25.3031C54.6715 25.1129 58.5181 24.6508 59.1729 25.5205C59.8549 26.3902 58.409 29.9778 57.7815 31.5813C57.5906 32.0705 57.9998 32.2608 58.4363 31.8803C61.3008 29.4886 62.0374 24.4878 61.4372 23.7811C60.8916 23.0473 55.8718 22.4222 52.8163 24.5693Z" fill="#F8992D"/>
<path d="M63.2652 18.4814C61.6284 17.5573 59.7187 17.3127 57.9454 17.3399L62.7742 10.4638C63.238 9.83866 63.4835 9.45817 63.4835 9.1592V7.39261C63.4835 7.09365 63.238 6.87622 62.9379 6.87622H53.6077C53.3076 6.87622 53.0893 7.09365 53.0893 7.39261V9.48535C53.0893 9.78431 53.3349 10.0017 53.635 10.0017H58.5183L52.8984 18.0194C52.5437 18.5357 52.5437 19.1065 52.5437 19.4598V21.5525C52.5437 21.8515 52.8711 22.2048 53.1985 22.0418C56.3904 20.3567 60.1825 20.5198 63.0743 22.0146C63.4289 22.2048 63.7563 21.8515 63.7563 21.5525V19.2967C63.729 18.9978 63.6472 18.6988 63.2652 18.4814Z" fill="black"/>
<path d="M16.1505 22.4223H18.9877C19.2878 22.4223 19.5334 22.2048 19.5334 21.9059V14.2144C19.5334 12.5293 19.4515 10.2192 21.4976 10.2192C23.5164 10.2192 23.2436 12.6109 23.2436 14.2144V21.9059C23.2436 22.1777 23.4619 22.4223 23.762 22.4223H26.5992C26.8993 22.4223 27.1448 22.2048 27.1448 21.9059V14.2144C27.1448 13.399 27.1176 12.176 27.4177 11.4422C27.7178 10.7084 28.4271 10.2464 29.1091 10.2464C29.9275 10.2464 30.555 10.5181 30.7733 11.4966C30.9097 12.0673 30.8551 13.6165 30.8551 14.2144V21.9059C30.8551 22.1777 31.0733 22.4223 31.3734 22.4223H34.2107C34.5108 22.4223 34.7563 22.1777 34.7563 21.9059V12.7468C34.7563 11.1976 34.9473 9.40382 34.047 8.18079C33.2558 7.09366 31.9463 6.57727 30.746 6.57727C29.0818 6.57727 27.4995 7.44698 26.8175 9.26793C26.0263 7.4198 24.9078 6.57727 23.1345 6.57727C21.3885 6.57727 20.079 7.44698 19.397 9.26793H19.3697V7.36544C19.3424 7.09366 19.1241 6.90341 18.8513 6.87623H16.2051C15.905 6.87623 15.6594 7.12084 15.6594 7.39262V21.9331C15.6594 22.2048 15.8777 22.4223 16.1505 22.4223Z" fill="black"/>
<path d="M71.5313 6.57727C67.4118 6.57727 65.1475 10.0833 65.1475 14.6221C65.1475 19.1065 67.4118 22.7212 71.5313 22.7212C75.5143 22.7212 78.0242 19.2152 78.0242 14.758C78.0242 10.192 75.7326 6.57727 71.5313 6.57727ZM71.5313 19.7316C69.2942 19.7316 69.3215 15.9538 69.3215 14.16C69.3215 12.3934 69.4579 9.53971 71.5586 9.53971C72.4588 9.53971 73.0863 9.94739 73.4137 10.953C73.7956 12.1217 73.8502 13.5893 73.8502 14.8123C73.8229 16.6876 73.7411 19.7316 71.5313 19.7316Z" fill="black"/>
<path d="M91.0646 8.28951C90.2735 7.0393 89.0185 6.57727 87.7636 6.57727C85.7993 6.57727 84.6808 7.52851 83.8896 9.51254H83.8351V7.31109C83.7805 7.09366 83.5895 6.93059 83.344 6.90341H80.6977C80.4249 6.90341 80.1794 7.12084 80.1521 7.36544V21.9059C80.1521 22.1777 80.3704 22.4223 80.6704 22.4223H83.5077C83.8078 22.4223 84.0533 22.2048 84.0533 21.9059V14.0785C84.0533 13.1001 84.1079 12.2032 84.5171 11.3335C84.8445 10.6268 85.472 10.1648 86.154 10.1648C88.1182 10.1648 87.9273 12.475 87.9273 14.0785V21.9602C87.9545 22.2048 88.1728 22.3951 88.4456 22.4223H91.3101C91.583 22.4223 91.8285 22.232 91.8558 21.9602V12.8283C91.8285 11.415 91.8285 9.45818 91.0646 8.28951Z" fill="black"/>
<path d="M45.6412 12.6108C44.0043 12.801 41.8491 12.9097 40.2941 13.5892C38.5208 14.3502 37.2659 15.9265 37.2659 18.2095C37.2659 21.1448 39.121 22.6124 41.5217 22.6124C43.5406 22.6124 44.6591 22.1504 46.2141 20.5469C46.7325 21.2807 46.8962 21.6612 47.851 22.4222C48.0693 22.5309 48.3421 22.5309 48.533 22.3678C49.1059 21.8514 50.1426 20.9817 50.7155 20.4925C50.9338 20.3023 50.9065 20.0033 50.7155 19.7315C50.1972 19.0249 49.6516 18.427 49.6516 17.0952V12.7195C49.6516 10.8442 49.788 9.13194 48.3966 7.85456C47.3054 6.82178 45.5048 6.44128 44.1135 6.44128C41.4126 6.44128 38.3844 7.44688 37.7569 10.7626C37.7024 11.116 37.9479 11.3062 38.1934 11.3606L40.9216 11.6867C41.1671 11.6867 41.3581 11.4149 41.4126 11.1703C41.6582 10.0288 42.613 9.45809 43.7043 9.45809C44.2772 9.45809 44.9592 9.67551 45.2866 10.1919C45.6958 10.7626 45.6412 11.578 45.6412 12.2303V12.6108V12.6108ZM45.0956 18.4813C44.6318 19.2695 43.9225 19.7587 43.1313 19.7587C42.0401 19.7587 41.4126 18.9433 41.4126 17.6931C41.4126 15.2743 43.5951 14.8394 45.6412 14.8394V15.4917C45.6412 16.5788 45.6685 17.5029 45.0956 18.4813Z" fill="black"/>
<path d="M13.4224 19.7586C12.904 19.052 12.3584 18.4812 12.3584 17.1495V12.7194C12.3584 10.8441 12.4948 9.13187 11.1035 7.85448C10.0122 6.8217 8.21167 6.46838 6.82032 6.46838C4.11947 6.46838 1.09125 7.47398 0.463782 10.7897C0.409219 11.1431 0.654751 11.3333 0.900282 11.3877L3.65569 11.6866C3.90122 11.6866 4.09219 11.4148 4.14675 11.1702C4.39229 10.0288 5.34713 9.45801 6.43838 9.45801C7.01129 9.45801 7.69332 9.67543 8.0207 10.1918C8.42992 10.7626 8.37535 11.5779 8.37535 12.2302V12.6107C6.71119 12.8009 4.58325 12.9097 3.02822 13.5891C1.25494 14.3501 0 15.9265 0 18.2094C0 21.1447 1.85513 22.6123 4.25588 22.6123C6.27469 22.6123 7.36595 22.1503 8.94826 20.5468C9.4666 21.2806 9.63029 21.6611 10.5851 22.4221C10.7761 22.5852 11.0489 22.558 11.2399 22.3949C11.8128 21.9057 12.8495 21.0088 13.4224 20.5196C13.6679 20.3294 13.6134 20.0304 13.4224 19.7586ZM8.37535 15.4916C8.37535 16.5787 8.40263 17.5028 7.85701 18.4812C7.39323 19.2966 6.68391 19.7858 5.86548 19.7858C4.77422 19.7858 4.14675 18.9433 4.14675 17.7202C4.14675 15.3014 6.32926 14.8665 8.37535 14.8665V15.4916V15.4916Z" fill="black"/>
<path d="M99.6858 22.8298C98.2399 22.8298 97.0668 22.4222 96.1938 21.5796C95.3208 20.7643 94.8843 19.65 94.8843 18.2639C94.8843 16.7691 95.4026 15.5732 96.4939 14.7035C97.5578 13.8066 99.0038 13.3718 100.804 13.3718C101.95 13.3718 103.232 13.5348 104.678 13.8881V11.8769C104.678 10.7626 104.433 10.2191 103.914 9.78421C103.423 9.32218 102.55 9.10475 101.35 9.10475C99.9313 9.10475 98.54 9.32218 97.2032 9.72986C96.7394 9.86575 96.4393 9.94728 96.3029 9.94728C96.0574 9.94728 95.921 9.75703 95.921 9.40372V8.58836C95.921 8.31658 95.9755 8.12633 96.0301 8.01762C96.1119 7.9089 96.2756 7.77301 96.5212 7.69148C97.1486 7.39252 97.9671 7.17509 98.9219 7.01202C99.904 6.84895 100.859 6.74023 101.814 6.74023C103.751 6.74023 105.197 7.14791 106.124 7.93608C107.052 8.75143 107.516 9.97446 107.516 11.6323V21.8786C107.516 22.2863 107.297 22.5037 106.915 22.5037H105.579C105.197 22.5037 104.951 22.3134 104.897 21.9329L104.733 20.9273C103.996 21.5525 103.178 22.0417 102.278 22.395C101.459 22.6396 100.559 22.8298 99.6858 22.8298ZM100.422 20.5197C101.104 20.5197 101.814 20.3838 102.55 20.112C103.287 19.8402 103.996 19.4597 104.678 18.9433V15.845C103.56 15.5732 102.496 15.4373 101.432 15.4373C99.1129 15.4373 97.9671 16.3342 97.9671 18.1008C97.9671 18.889 98.1853 19.4597 98.6218 19.8946C99.0038 20.3294 99.6312 20.5197 100.422 20.5197Z" fill="#F8992D"/>
<path d="M115.864 22.7755C114.5 22.7755 113.354 22.4493 112.372 21.7699C111.39 21.0904 110.626 20.1664 110.107 18.9433C109.589 17.7475 109.316 16.3342 109.316 14.7579C109.316 13.0728 109.589 11.8226 110.135 10.5452C110.68 9.29501 111.471 8.34376 112.481 7.6643C113.49 7.01202 114.636 6.6587 115.946 6.6587C117.692 6.6587 119.247 7.22945 120.638 8.37094V0.625103C120.665 0.217427 120.856 0 121.265 0H123.066C123.475 0 123.693 0.217427 123.693 0.625103V21.8242C123.693 22.2319 123.475 22.4493 123.066 22.4493H121.702C121.511 22.4493 121.374 22.395 121.265 22.3135C121.156 22.2319 121.074 22.0688 120.993 21.8242L120.747 20.8458C120.065 21.4709 119.301 21.933 118.428 22.2591C117.61 22.5852 116.737 22.7755 115.864 22.7755ZM116.791 20.3294C118.073 20.3294 119.356 19.8674 120.665 18.9162V10.4637C120.038 10.0016 119.383 9.64833 118.755 9.4309C118.101 9.21347 117.391 9.10476 116.628 9.10476C113.845 9.10476 112.454 10.7898 112.454 14.6491C112.426 18.4269 113.872 20.3294 116.791 20.3294Z" fill="#F8992D"/>
<path d="M131.496 22.4223C131.196 22.4223 131.005 22.368 130.868 22.3136C130.732 22.2321 130.595 21.9875 130.459 21.607L125.03 8.0178C124.975 7.90909 124.948 7.77319 124.894 7.66448C124.839 7.52859 124.812 7.41988 124.812 7.33834C124.812 7.06656 124.975 6.93066 125.276 6.93066H127.076C127.376 6.93066 127.594 6.98502 127.731 7.06656C127.867 7.14809 127.976 7.3927 128.14 7.77319L132.341 19.7045L136.543 7.77319C136.679 7.3927 136.816 7.14809 136.952 7.06656C137.061 6.98502 137.279 6.93066 137.607 6.93066H139.298C139.598 6.93066 139.762 7.06656 139.762 7.33834C139.762 7.44705 139.735 7.55577 139.68 7.66448C139.626 7.77319 139.571 7.90909 139.544 8.0178L134.142 21.607C133.951 21.9875 133.815 22.2321 133.678 22.3136C133.542 22.3952 133.324 22.4223 133.051 22.4223H131.496Z" fill="#F8992D"/>
<path d="M147.182 22.8841C144.672 22.8841 142.763 22.2047 141.48 20.7914C140.198 19.4053 139.543 17.3669 139.543 14.6491C139.543 12.0671 140.198 10.0288 141.48 8.61548C142.763 7.17502 144.563 6.46838 146.882 6.46838C148.819 6.46838 150.32 7.01195 151.356 8.09909C152.393 9.18622 152.911 10.7354 152.911 12.7466C152.911 13.3989 152.857 14.0512 152.748 14.7306C152.693 14.9752 152.638 15.1383 152.557 15.2198C152.475 15.3014 152.311 15.3285 152.12 15.3285H142.463C142.49 17.0951 142.926 18.3725 143.772 19.215C144.59 20.0576 145.9 20.4653 147.619 20.4653C148.219 20.4653 148.819 20.4109 149.392 20.3294C149.965 20.2478 150.674 20.0848 151.52 19.813C151.656 19.7586 151.793 19.7314 151.902 19.7043C152.011 19.6771 152.093 19.6499 152.175 19.6499C152.447 19.6499 152.584 19.8401 152.584 20.1935V21.0632C152.584 21.335 152.529 21.5252 152.448 21.6339C152.366 21.7426 152.202 21.8785 151.929 21.9872C151.302 22.259 150.592 22.4765 149.719 22.6395C148.901 22.8026 148.028 22.8841 147.182 22.8841ZM150.129 13.3173C150.156 13.1543 150.156 12.8825 150.156 12.5292C150.156 11.279 149.856 10.3549 149.283 9.70261C148.71 9.07751 147.837 8.75137 146.718 8.75137C145.436 8.75137 144.427 9.13187 143.717 9.89286C143.008 10.6539 142.599 11.7953 142.49 13.3173H150.129Z" fill="#F8992D"/>
<path d="M155.558 22.4221C155.149 22.4221 154.93 22.2047 154.93 21.797V7.52837C154.93 7.1207 155.149 6.90327 155.558 6.90327H156.922C157.14 6.90327 157.277 6.95763 157.386 7.03916C157.495 7.1207 157.577 7.28377 157.604 7.50119L157.822 9.21343C158.368 8.61551 158.886 8.15347 159.377 7.80016C159.868 7.44684 160.387 7.20223 160.905 7.03916C161.423 6.87609 161.996 6.79456 162.569 6.79456C162.815 6.79456 163.06 6.79456 163.306 6.82173C163.66 6.87609 163.824 7.03916 163.824 7.3653V9.02318C163.824 9.3765 163.633 9.56675 163.278 9.56675C163.088 9.56675 162.924 9.56675 162.733 9.53957C162.569 9.51239 162.405 9.51239 162.187 9.51239C160.55 9.51239 159.159 10.0016 157.986 10.98V21.8242C157.986 22.2319 157.768 22.4493 157.386 22.4493H155.558V22.4221Z" fill="#F8992D"/>
<path d="M172.554 22.6395C169.635 22.6395 168.189 21.1991 168.189 18.291V9.26775H165.98C165.57 9.26775 165.352 9.05032 165.352 8.64265V7.90883C165.352 7.6914 165.407 7.55551 165.488 7.4468C165.57 7.33808 165.761 7.28373 166.034 7.22937L168.271 6.95759L168.68 3.15261C168.735 2.74494 168.926 2.55469 169.335 2.55469H170.617C171.027 2.55469 171.245 2.77211 171.245 3.15261V6.87605H175.228C175.637 6.87605 175.855 7.09348 175.855 7.50115V8.66982C175.855 9.0775 175.637 9.29493 175.228 9.29493H171.245V18.1551C171.245 18.9161 171.408 19.4325 171.763 19.7586C172.091 20.0576 172.691 20.2206 173.509 20.2206C173.891 20.2206 174.382 20.1663 174.955 20.0576C175.255 20.0032 175.473 19.976 175.583 19.976C175.746 19.976 175.855 20.0304 175.91 20.1119C175.964 20.1935 175.992 20.3565 175.992 20.5468V21.3621C175.992 21.6339 175.937 21.8242 175.883 21.9601C175.801 22.0959 175.637 22.2047 175.392 22.2862C174.546 22.5036 173.618 22.6395 172.554 22.6395Z" fill="#F8992D"/>
<path d="M179.756 4.13132C179.156 4.13132 178.692 3.96825 178.365 3.61493C178.037 3.28879 177.846 2.82676 177.846 2.28319C177.846 1.73962 178.01 1.27759 178.365 0.951448C178.692 0.625307 179.156 0.435059 179.756 0.435059C180.356 0.435059 180.82 0.598129 181.147 0.951448C181.475 1.27759 181.666 1.73962 181.666 2.28319C181.666 2.82676 181.502 3.28879 181.147 3.61493C180.82 3.96825 180.356 4.13132 179.756 4.13132ZM178.829 22.4224C178.419 22.4224 178.201 22.2321 178.201 21.7973V7.50144C178.201 7.09376 178.392 6.87633 178.829 6.87633H180.629C181.038 6.87633 181.257 7.09376 181.257 7.50144V21.7973C181.257 22.2049 181.038 22.4224 180.629 22.4224H178.829Z" fill="#F8992D"/>
<path d="M188.841 22.8842C187.122 22.8842 185.567 22.5852 184.203 22.0145C183.958 21.9058 183.794 21.7971 183.685 21.6884C183.603 21.5796 183.549 21.3622 183.549 21.1176V20.2479C183.549 19.8946 183.658 19.7043 183.931 19.7043C184.067 19.7043 184.34 19.7587 184.694 19.8946C186.058 20.3294 187.45 20.5469 188.896 20.5469C189.905 20.5469 190.669 20.3566 191.187 19.9761C191.706 19.5956 191.979 19.0249 191.979 18.2911C191.979 17.8018 191.815 17.3942 191.515 17.0952C191.187 16.7962 190.614 16.4973 189.769 16.1711L187.15 15.1655C184.858 14.323 183.74 12.8826 183.74 10.8714C183.74 9.53962 184.258 8.47966 185.295 7.66431C186.331 6.84896 187.695 6.44128 189.36 6.44128C190.696 6.44128 191.978 6.68589 193.261 7.14792C193.506 7.22946 193.67 7.33817 193.779 7.47406C193.888 7.60995 193.943 7.8002 193.943 8.07199V8.88734C193.943 9.24066 193.806 9.43091 193.534 9.43091C193.397 9.43091 193.152 9.37655 192.824 9.26784C191.733 8.9417 190.642 8.77863 189.496 8.77863C187.532 8.77863 186.55 9.43091 186.55 10.7626C186.55 11.3062 186.713 11.7139 187.041 12.0129C187.368 12.3118 188.023 12.6651 188.978 13.0185L191.378 13.9425C192.579 14.4046 193.452 14.9753 193.997 15.6004C194.516 16.2527 194.788 17.068 194.788 18.1008C194.788 19.5413 194.243 20.7099 193.152 21.5525C192.088 22.4494 190.642 22.8842 188.841 22.8842Z" fill="#F8992D"/>
<path d="M198.28 4.13132C197.68 4.13132 197.216 3.96825 196.889 3.61493C196.562 3.28879 196.371 2.82676 196.371 2.28319C196.371 1.73962 196.534 1.27759 196.889 0.951448C197.216 0.625307 197.68 0.435059 198.28 0.435059C198.88 0.435059 199.344 0.598129 199.672 0.951448C199.999 1.27759 200.19 1.73962 200.19 2.28319C200.19 2.82676 200.026 3.28879 199.672 3.61493C199.344 3.96825 198.88 4.13132 198.28 4.13132ZM197.38 22.4224C196.971 22.4224 196.753 22.2321 196.753 21.7973V7.50144C196.753 7.09376 196.943 6.87633 197.38 6.87633H199.181C199.59 6.87633 199.808 7.09376 199.808 7.50144V21.7973C199.808 22.2049 199.59 22.4224 199.181 22.4224H197.38Z" fill="#F8992D"/>
<path d="M202.945 22.4222C202.536 22.4222 202.318 22.2319 202.318 21.7971V7.50124C202.318 7.09357 202.536 6.87614 202.945 6.87614H204.309C204.5 6.87614 204.664 6.90332 204.773 7.01203C204.882 7.09357 204.964 7.25664 204.991 7.47406L205.182 8.61556C207.119 7.1751 209.165 6.44128 211.32 6.44128C212.821 6.44128 213.939 6.82178 214.731 7.60995C215.522 8.39813 215.904 9.53962 215.904 11.0344V21.7971C215.904 22.2047 215.685 22.4222 215.276 22.4222H213.476C213.066 22.4222 212.848 22.2319 212.848 21.7971V12.04C212.848 10.9529 212.63 10.1647 212.193 9.64833C211.757 9.13194 211.075 8.88734 210.12 8.88734C208.51 8.88734 206.901 9.40373 205.346 10.4365V21.7971C205.346 22.2047 205.128 22.4222 204.718 22.4222H202.945Z" fill="#F8992D"/>
<path d="M224.497 29.0807C222.806 29.0807 221.251 28.7818 219.805 28.1567C219.56 28.048 219.396 27.9392 219.314 27.8305C219.232 27.6946 219.205 27.5044 219.205 27.2598V26.3629C219.205 25.9824 219.314 25.8193 219.587 25.8193C219.723 25.8193 219.86 25.8465 220.023 25.9009C220.187 25.9552 220.433 26.0368 220.733 26.1183C222.015 26.4716 223.188 26.6347 224.252 26.6347C225.889 26.6347 227.089 26.2542 227.853 25.466C228.617 24.6778 228.999 23.4276 228.999 21.6882V20.3021C228.29 20.9 227.553 21.3349 226.762 21.661C225.971 21.9872 225.152 22.1231 224.334 22.1231C223.024 22.1231 221.878 21.7969 220.924 21.1446C219.969 20.4924 219.232 19.5955 218.714 18.4268C218.195 17.2581 217.95 16.1438 217.95 14.649C217.95 12.203 218.523 10.2461 219.696 8.80566C220.869 7.36521 222.424 6.65857 224.388 6.65857C226.243 6.65857 227.826 7.28367 229.217 8.56106L229.381 7.71853C229.435 7.5011 229.49 7.33803 229.599 7.25649C229.708 7.17496 229.872 7.1206 230.063 7.1206H231.372C231.782 7.1206 232 7.33803 232 7.7457V21.4708C232 23.8897 231.345 25.765 230.036 27.0967C228.753 28.4285 226.898 29.0807 224.497 29.0807ZM225.207 19.677C226.489 19.677 227.744 19.215 228.999 18.2637V10.4635C228.371 10.0015 227.771 9.64819 227.116 9.43076C226.489 9.21334 225.78 9.10462 225.016 9.10462C222.342 9.10462 221.033 10.8984 221.033 14.5131C221.033 16.2797 221.387 17.4212 222.097 18.3181C222.806 19.2422 223.843 19.677 225.207 19.677Z" fill="#F8992D"/>
</svg>
