<svg width="181" height="26" viewBox="0 0 181 26" fill="none" xmlns="http://www.w3.org/2000/svg">
<path d="M43.8451 20.4716C39.1839 22.4044 34.097 23.3397 29.4996 23.3397C22.6674 23.3397 16.0481 21.5107 10.6845 18.4556C10.2162 18.1854 9.87566 18.6634 10.2588 18.9959C15.218 23.3813 21.7735 26 29.0739 26C34.2673 26 40.312 24.3996 44.4624 21.4068C45.1222 20.9288 44.5475 20.1806 43.8451 20.4716Z" fill="#F8992D"/>
<path d="M41.2059 18.7883C40.8441 19.0377 40.9079 19.3911 41.3123 19.3495C42.6532 19.204 45.6543 18.8507 46.1651 19.5158C46.6972 20.1808 45.5692 22.9242 45.0796 24.1505C44.9306 24.5246 45.2499 24.6701 45.5904 24.3791C47.8253 22.5501 48.4 18.726 47.9317 18.1856C47.506 17.6245 43.5897 17.1464 41.2059 18.7883Z" fill="#F8992D"/>
<path d="M49.3578 14.1328C48.0808 13.4262 46.5909 13.2391 45.2074 13.2599L48.9747 8.00166C49.3365 7.52364 49.5281 7.23267 49.5281 7.00405V5.65313C49.5281 5.42451 49.3365 5.25824 49.1024 5.25824H41.8232C41.5891 5.25824 41.4188 5.42451 41.4188 5.65313V7.25345C41.4188 7.48207 41.6104 7.64834 41.8445 7.64834H45.6544L41.2699 13.7795C40.9932 14.1744 40.9932 14.6108 40.9932 14.881V16.4813C40.9932 16.7099 41.2486 16.9801 41.504 16.8554C43.9942 15.5668 46.9527 15.6916 49.2088 16.8346C49.4855 16.9801 49.7409 16.7099 49.7409 16.4813V14.7563C49.7197 14.5277 49.6558 14.2991 49.3578 14.1328Z" fill="black"/>
<path d="M12.5999 17.1464H14.8135C15.0476 17.1464 15.2391 16.9802 15.2391 16.7516V10.8698C15.2391 9.58125 15.1753 7.81465 16.7716 7.81465C18.3466 7.81465 18.1338 9.6436 18.1338 10.8698V16.7516C18.1338 16.9594 18.3041 17.1464 18.5382 17.1464H20.7517C20.9859 17.1464 21.1774 16.9802 21.1774 16.7516V10.8698C21.1774 10.2463 21.1561 9.31106 21.3903 8.74991C21.6244 8.18875 22.1778 7.83543 22.7099 7.83543C23.3484 7.83543 23.8379 8.04327 24.0082 8.79147C24.1146 9.22793 24.0721 10.4126 24.0721 10.8698V16.7516C24.0721 16.9594 24.2423 17.1464 24.4765 17.1464H26.69C26.9241 17.1464 27.1157 16.9594 27.1157 16.7516V9.74751C27.1157 8.56286 27.2647 7.19115 26.5623 6.25589C25.9451 5.42455 24.9234 5.02966 23.9869 5.02966C22.6886 5.02966 21.4541 5.69473 20.922 7.08723C20.3048 5.67395 19.4321 5.02966 18.0486 5.02966C16.6865 5.02966 15.6648 5.69473 15.1327 7.08723H15.1114V5.63238C15.0902 5.42455 14.9199 5.27906 14.707 5.25828H12.6425C12.4084 5.25828 12.2168 5.44533 12.2168 5.65317V16.7723C12.2168 16.9802 12.3871 17.1464 12.5999 17.1464Z" fill="black"/>
<path d="M55.8067 5.02966C52.5928 5.02966 50.8262 7.71073 50.8262 11.1816C50.8262 14.6109 52.5928 17.3751 55.8067 17.3751C58.9141 17.3751 60.8723 14.694 60.8723 11.2855C60.8723 7.79387 59.0844 5.02966 55.8067 5.02966ZM55.8067 15.0889C54.0614 15.0889 54.0826 12.2 54.0826 10.8283C54.0826 9.47733 54.1891 7.29506 55.8279 7.29506C56.5303 7.29506 57.0199 7.60682 57.2753 8.3758C57.5732 9.26949 57.6158 10.3918 57.6158 11.3271C57.5945 12.7611 57.5307 15.0889 55.8067 15.0889Z" fill="black"/>
<path d="M71.0464 6.33902C70.4291 5.38298 69.4501 5.02966 68.471 5.02966C66.9385 5.02966 66.0659 5.75708 65.4486 7.27428H65.4061V5.59082C65.3635 5.42455 65.2145 5.29985 65.023 5.27906H62.9584C62.7456 5.27906 62.554 5.44533 62.5327 5.63238V16.7516C62.5327 16.9594 62.703 17.1464 62.9371 17.1464H65.1507C65.3848 17.1464 65.5763 16.9802 65.5763 16.7516V10.7659C65.5763 10.0177 65.6189 9.33184 65.9382 8.66677C66.1936 8.1264 66.6831 7.77308 67.2152 7.77308C68.7477 7.77308 68.5987 9.53968 68.5987 10.7659V16.7931C68.62 16.9802 68.7902 17.1257 69.0031 17.1464H71.2379C71.4508 17.1464 71.6423 17.001 71.6636 16.7931V9.80986C71.6423 8.72912 71.6423 7.23271 71.0464 6.33902Z" fill="black"/>
<path d="M35.608 9.64357C34.3309 9.78906 32.6495 9.87219 31.4363 10.3918C30.0528 10.9737 29.0737 12.1792 29.0737 13.925C29.0737 16.1696 30.5211 17.2919 32.3941 17.2919C33.9691 17.2919 34.8417 16.9386 36.0549 15.7123C36.4593 16.2735 36.587 16.5645 37.332 17.1464C37.5022 17.2295 37.7151 17.2295 37.8641 17.1048C38.311 16.71 39.1198 16.0449 39.5668 15.6708C39.7371 15.5253 39.7158 15.2967 39.5668 15.0888C39.1624 14.5485 38.7367 14.0912 38.7367 13.0728V9.72671C38.7367 8.29264 38.8431 6.98329 37.7577 6.00646C36.9063 5.21669 35.5015 4.92572 34.416 4.92572C32.3089 4.92572 29.9464 5.69471 29.4568 8.23029C29.4143 8.50048 29.6058 8.64596 29.7974 8.68753L31.9258 8.93693C32.1174 8.93693 32.2664 8.7291 32.3089 8.54205C32.5005 7.66914 33.2454 7.23269 34.0968 7.23269C34.5438 7.23269 35.0759 7.39896 35.3313 7.79384C35.6505 8.23029 35.608 8.8538 35.608 9.3526V9.64357V9.64357ZM35.1823 14.1328C34.8204 14.7355 34.2671 15.1096 33.6498 15.1096C32.7985 15.1096 32.3089 14.4861 32.3089 13.5301C32.3089 11.6804 34.0116 11.3478 35.608 11.3478V11.8466C35.608 12.678 35.6292 13.3846 35.1823 14.1328Z" fill="black"/>
<path d="M10.4718 15.1096C10.0674 14.5692 9.64171 14.1328 9.64171 13.1144V9.72667C9.64171 8.29261 9.74813 6.98325 8.66264 6.00643C7.81128 5.21666 6.40652 4.94647 5.32103 4.94647C3.2139 4.94647 0.851365 5.71546 0.36183 8.25105C0.319262 8.52123 0.510819 8.66672 0.702376 8.70828L2.85207 8.9369C3.04363 8.9369 3.19262 8.72907 3.23519 8.54202C3.42674 7.66911 4.17169 7.23266 5.02305 7.23266C5.47002 7.23266 6.00212 7.39892 6.25753 7.79381C6.5768 8.23026 6.53423 8.85377 6.53423 9.35257V9.64354C5.2359 9.78902 3.57573 9.87216 2.36254 10.3917C0.97907 10.9737 0 12.1791 0 13.9249C0 16.1696 1.44732 17.2919 3.32032 17.2919C4.89535 17.2919 5.74671 16.9385 6.98119 15.7123C7.38559 16.2735 7.5133 16.5644 8.25824 17.1464C8.40723 17.2711 8.62007 17.2503 8.76906 17.1256C9.21603 16.7515 10.0248 16.0656 10.4718 15.6915C10.6633 15.5461 10.6208 15.3174 10.4718 15.1096ZM6.53423 11.8466C6.53423 12.6779 6.55551 13.3846 6.12983 14.1328C5.768 14.7563 5.21461 15.1304 4.57609 15.1304C3.72472 15.1304 3.23519 14.4861 3.23519 13.5508C3.23519 11.7011 4.93792 11.3686 6.53423 11.3686V11.8466V11.8466Z" fill="black"/>
<path d="M77.7724 17.4581C76.6443 17.4581 75.7291 17.1464 75.048 16.5021C74.3669 15.8786 74.0264 15.0265 74.0264 13.9665C74.0264 12.8234 74.4308 11.9089 75.2821 11.2439C76.1122 10.558 77.2403 10.2255 78.645 10.2255C79.539 10.2255 80.5393 10.3502 81.6674 10.6204V9.08238C81.6674 8.23025 81.4758 7.81458 81.0714 7.48205C80.6883 7.12873 80.0072 6.96246 79.0707 6.96246C77.9639 6.96246 76.8784 7.12873 75.8355 7.44048C75.4737 7.5444 75.2396 7.60675 75.1331 7.60675C74.9416 7.60675 74.8352 7.46126 74.8352 7.19108V6.56757C74.8352 6.35974 74.8777 6.21425 74.9203 6.13112C74.9842 6.04799 75.1119 5.94407 75.3034 5.88172C75.793 5.6531 76.4315 5.48683 77.1764 5.36213C77.9426 5.23743 78.6876 5.1543 79.4325 5.1543C80.9437 5.1543 82.0718 5.46605 82.7954 6.06877C83.5191 6.69228 83.8809 7.62753 83.8809 8.89533V16.7307C83.8809 17.0425 83.7106 17.2087 83.4127 17.2087H82.3697C82.0718 17.2087 81.8802 17.0632 81.8376 16.7723L81.7099 16.0033C81.1353 16.4813 80.4967 16.8554 79.7944 17.1256C79.1558 17.3126 78.4535 17.4581 77.7724 17.4581ZM78.3471 15.6915C78.8792 15.6915 79.4325 15.5876 80.0072 15.3798C80.5819 15.1719 81.1353 14.881 81.6674 14.4861V12.1168C80.7947 11.9089 79.9646 11.805 79.1346 11.805C77.3254 11.805 76.4315 12.4909 76.4315 13.8418C76.4315 14.4445 76.6018 14.881 76.9423 15.2135C77.2403 15.546 77.7298 15.6915 78.3471 15.6915Z" fill="#F8992D"/>
<path d="M90.3938 17.4166C89.3296 17.4166 88.4357 17.1672 87.6695 16.6476C86.9032 16.128 86.3073 15.4213 85.9029 14.4861C85.4985 13.5716 85.2856 12.4909 85.2856 11.2854C85.2856 9.99686 85.4985 9.04082 85.9242 8.06399C86.3498 7.10795 86.9671 6.38053 87.7546 5.86094C88.5421 5.36214 89.4361 5.09195 90.4577 5.09195C91.8199 5.09195 93.0331 5.52841 94.1186 6.40131V0.47802C94.1398 0.166268 94.2888 0 94.6081 0H96.0128C96.3321 0 96.5024 0.166268 96.5024 0.47802V16.6891C96.5024 17.0009 96.3321 17.1672 96.0128 17.1672H94.9486C94.7997 17.1672 94.6932 17.1256 94.6081 17.0632C94.523 17.0009 94.4591 16.8762 94.3952 16.6891L94.2037 15.9409C93.6716 16.419 93.0756 16.7723 92.3945 17.0217C91.756 17.2711 91.0749 17.4166 90.3938 17.4166ZM91.1175 15.546C92.1179 15.546 93.1182 15.1927 94.1398 14.4653V8.00164C93.6503 7.64832 93.1395 7.37814 92.65 7.21187C92.1391 7.0456 91.5857 6.96247 90.9898 6.96247C88.8188 6.96247 87.7333 8.25104 87.7333 11.2023C87.712 14.0912 88.8401 15.546 91.1175 15.546Z" fill="#F8992D"/>
<path d="M102.589 17.1465C102.355 17.1465 102.206 17.1049 102.1 17.0634C101.993 17.001 101.887 16.814 101.78 16.523L97.5448 6.13127C97.5022 6.04813 97.4809 5.94421 97.4384 5.86108C97.3958 5.75716 97.3745 5.67403 97.3745 5.61168C97.3745 5.40384 97.5022 5.29993 97.7363 5.29993H99.1411C99.3752 5.29993 99.5455 5.34149 99.6519 5.40384C99.7583 5.46619 99.8435 5.65325 99.9712 5.94421L103.249 15.0682L106.527 5.94421C106.633 5.65325 106.74 5.46619 106.846 5.40384C106.931 5.34149 107.101 5.29993 107.357 5.29993H108.676C108.911 5.29993 109.038 5.40384 109.038 5.61168C109.038 5.69481 109.017 5.77795 108.974 5.86108C108.932 5.94421 108.889 6.04813 108.868 6.13127L104.654 16.523C104.505 16.814 104.398 17.001 104.292 17.0634C104.185 17.1257 104.015 17.1465 103.802 17.1465H102.589Z" fill="#F8992D"/>
<path d="M114.828 17.4997C112.87 17.4997 111.38 16.9801 110.379 15.8994C109.379 14.8394 108.868 13.2807 108.868 11.2023C108.868 9.22787 109.379 7.66911 110.379 6.58837C111.38 5.48684 112.784 4.94647 114.594 4.94647C116.105 4.94647 117.275 5.36214 118.084 6.19348C118.893 7.02482 119.297 8.20948 119.297 9.74746C119.297 10.2463 119.255 10.7451 119.17 11.2647C119.127 11.4517 119.085 11.5764 119.021 11.6388C118.957 11.7011 118.829 11.7219 118.68 11.7219H111.146C111.167 13.0728 111.507 14.0496 112.167 14.6939C112.806 15.3382 113.827 15.65 115.168 15.65C115.637 15.65 116.105 15.6084 116.552 15.5461C116.999 15.4837 117.552 15.359 118.212 15.1512C118.318 15.1096 118.425 15.0888 118.51 15.068C118.595 15.0472 118.659 15.0265 118.723 15.0265C118.936 15.0265 119.042 15.1719 119.042 15.4421V16.1072C119.042 16.315 118.999 16.4605 118.936 16.5437C118.872 16.6268 118.744 16.7307 118.531 16.8138C118.042 17.0217 117.488 17.1879 116.807 17.3126C116.169 17.4373 115.488 17.4997 114.828 17.4997ZM117.126 10.1839C117.148 10.0592 117.148 9.85138 117.148 9.58119C117.148 8.62515 116.914 7.91851 116.467 7.41971C116.02 6.94169 115.339 6.69229 114.466 6.69229C113.466 6.69229 112.678 6.98325 112.125 7.56519C111.571 8.14713 111.252 9.02004 111.167 10.1839H117.126Z" fill="#F8992D"/>
<path d="M121.362 17.1464C121.043 17.1464 120.873 16.9801 120.873 16.6683V5.75702C120.873 5.44526 121.043 5.279 121.362 5.279H122.426C122.597 5.279 122.703 5.32056 122.788 5.38291C122.873 5.44526 122.937 5.56996 122.958 5.73623L123.129 7.04559C123.554 6.58836 123.959 6.23504 124.342 5.96485C124.725 5.69467 125.129 5.50761 125.534 5.38291C125.938 5.25821 126.385 5.19586 126.832 5.19586C127.024 5.19586 127.215 5.19586 127.407 5.21665C127.683 5.25821 127.811 5.38291 127.811 5.63232V6.90011C127.811 7.17029 127.662 7.31578 127.385 7.31578C127.237 7.31578 127.109 7.31578 126.96 7.29499C126.832 7.27421 126.704 7.27421 126.534 7.27421C125.257 7.27421 124.172 7.64831 123.256 8.39652V16.6891C123.256 17.0009 123.086 17.1672 122.788 17.1672H121.362V17.1464Z" fill="#F8992D"/>
<path d="M134.622 17.3126C132.345 17.3126 131.217 16.2111 131.217 13.9873V7.08714H129.493C129.174 7.08714 129.003 6.92087 129.003 6.60911V6.04796C129.003 5.88169 129.046 5.77778 129.11 5.69464C129.174 5.61151 129.323 5.56994 129.536 5.52837L131.281 5.32054L131.6 2.41085C131.643 2.0991 131.792 1.95361 132.111 1.95361H133.111C133.431 1.95361 133.601 2.11988 133.601 2.41085V5.25819H136.708C137.028 5.25819 137.198 5.42446 137.198 5.73621V6.6299C137.198 6.94165 137.028 7.10792 136.708 7.10792H133.601V13.8833C133.601 14.4653 133.728 14.8602 134.005 15.1096C134.261 15.3382 134.729 15.4629 135.367 15.4629C135.665 15.4629 136.048 15.4213 136.495 15.3382C136.73 15.2966 136.9 15.2758 136.985 15.2758C137.113 15.2758 137.198 15.3174 137.24 15.3797C137.283 15.4421 137.304 15.5668 137.304 15.7123V16.3358C137.304 16.5436 137.262 16.6891 137.219 16.793C137.155 16.8969 137.028 16.9801 136.836 17.0424C136.176 17.2087 135.453 17.3126 134.622 17.3126Z" fill="#F8992D"/>
<path d="M140.241 3.1592C139.773 3.1592 139.411 3.03449 139.156 2.76431C138.9 2.51491 138.751 2.16159 138.751 1.74592C138.751 1.33025 138.879 0.97693 139.156 0.727528C139.411 0.478126 139.773 0.332642 140.241 0.332642C140.71 0.332642 141.071 0.457343 141.327 0.727528C141.582 0.97693 141.731 1.33025 141.731 1.74592C141.731 2.16159 141.604 2.51491 141.327 2.76431C141.071 3.03449 140.71 3.1592 140.241 3.1592ZM139.518 17.1465C139.198 17.1465 139.028 17.001 139.028 16.6685V5.73635C139.028 5.4246 139.177 5.25833 139.518 5.25833H140.922C141.242 5.25833 141.412 5.4246 141.412 5.73635V16.6685C141.412 16.9802 141.242 17.1465 140.922 17.1465H139.518Z" fill="#F8992D"/>
<path d="M147.329 17.4997C145.988 17.4997 144.775 17.2711 143.711 16.8347C143.519 16.7515 143.391 16.6684 143.306 16.5853C143.242 16.5021 143.2 16.3359 143.2 16.1488V15.4837C143.2 15.2135 143.285 15.0681 143.498 15.0681C143.604 15.0681 143.817 15.1096 144.094 15.2135C145.158 15.5461 146.243 15.7124 147.371 15.7124C148.159 15.7124 148.755 15.5669 149.159 15.2759C149.564 14.9849 149.777 14.5485 149.777 13.9873C149.777 13.6132 149.649 13.3015 149.415 13.0728C149.159 12.8442 148.712 12.6156 148.052 12.3662L146.009 11.5972C144.221 10.9529 143.349 9.85141 143.349 8.31343C143.349 7.29504 143.753 6.48448 144.562 5.86098C145.371 5.23747 146.435 4.92572 147.733 4.92572C148.776 4.92572 149.776 5.11277 150.777 5.46609C150.968 5.52844 151.096 5.61158 151.181 5.71549C151.266 5.81941 151.309 5.96489 151.309 6.17273V6.79623C151.309 7.06642 151.203 7.2119 150.99 7.2119C150.883 7.2119 150.692 7.17034 150.436 7.0872C149.585 6.8378 148.734 6.7131 147.84 6.7131C146.307 6.7131 145.541 7.2119 145.541 8.2303C145.541 8.64597 145.669 8.95772 145.924 9.18634C146.179 9.41495 146.69 9.68514 147.435 9.95532L149.308 10.662C150.245 11.0153 150.926 11.4517 151.352 11.9298C151.756 12.4286 151.969 13.0521 151.969 13.8418C151.969 14.9434 151.543 15.8371 150.692 16.4813C149.862 17.1672 148.734 17.4997 147.329 17.4997Z" fill="#F8992D"/>
<path d="M154.693 3.1592C154.225 3.1592 153.863 3.03449 153.608 2.76431C153.352 2.51491 153.203 2.16159 153.203 1.74592C153.203 1.33025 153.331 0.97693 153.608 0.727528C153.863 0.478126 154.225 0.332642 154.693 0.332642C155.161 0.332642 155.523 0.457343 155.779 0.727528C156.034 0.97693 156.183 1.33025 156.183 1.74592C156.183 2.16159 156.055 2.51491 155.779 2.76431C155.523 3.03449 155.161 3.1592 154.693 3.1592ZM153.991 17.1465C153.671 17.1465 153.501 17.001 153.501 16.6685V5.73635C153.501 5.4246 153.65 5.25833 153.991 5.25833H155.395C155.715 5.25833 155.885 5.4246 155.885 5.73635V16.6685C155.885 16.9802 155.715 17.1465 155.395 17.1465H153.991Z" fill="#F8992D"/>
<path d="M158.332 17.1464C158.013 17.1464 157.843 17.0009 157.843 16.6684V5.73628C157.843 5.42452 158.013 5.25826 158.332 5.25826H159.397C159.545 5.25826 159.673 5.27904 159.758 5.36217C159.843 5.42452 159.907 5.54923 159.929 5.71549L160.078 6.5884C161.589 5.48687 163.185 4.92572 164.867 4.92572C166.037 4.92572 166.91 5.21669 167.527 5.81941C168.144 6.42213 168.442 7.29504 168.442 8.43813V16.6684C168.442 16.9801 168.272 17.1464 167.953 17.1464H166.548C166.229 17.1464 166.058 17.0009 166.058 16.6684V9.20712C166.058 8.37578 165.888 7.77306 165.548 7.37817C165.207 6.98329 164.675 6.79623 163.93 6.79623C162.674 6.79623 161.418 7.19112 160.205 7.98089V16.6684C160.205 16.9801 160.035 17.1464 159.716 17.1464H158.332Z" fill="#F8992D"/>
<path d="M175.147 22.2383C173.828 22.2383 172.614 22.0097 171.486 21.5317C171.295 21.4485 171.167 21.3654 171.103 21.2823C171.039 21.1783 171.018 21.0329 171.018 20.8458V20.1599C171.018 19.869 171.103 19.7443 171.316 19.7443C171.423 19.7443 171.529 19.7651 171.657 19.8066C171.784 19.8482 171.976 19.9105 172.21 19.9729C173.21 20.2431 174.126 20.3678 174.956 20.3678C176.233 20.3678 177.169 20.0768 177.765 19.4741C178.361 18.8714 178.659 17.9153 178.659 16.5852V15.5252C178.106 15.9825 177.531 16.315 176.914 16.5644C176.297 16.8138 175.658 16.9177 175.02 16.9177C173.998 16.9177 173.104 16.6683 172.359 16.1695C171.614 15.6707 171.039 14.9849 170.635 14.0912C170.231 13.1975 170.039 12.3454 170.039 11.2023C170.039 9.33175 170.486 7.83534 171.401 6.73381C172.316 5.63229 173.53 5.09192 175.062 5.09192C176.509 5.09192 177.744 5.56994 178.829 6.54676L178.957 5.90247C179 5.73621 179.042 5.61151 179.127 5.54916C179.213 5.48681 179.34 5.44524 179.489 5.44524H180.511C180.83 5.44524 181 5.61151 181 5.92326V16.4189C181 18.2687 180.49 19.7027 179.468 20.7211C178.468 21.7395 177.02 22.2383 175.147 22.2383ZM175.701 15.0472C176.701 15.0472 177.68 14.6939 178.659 13.9665V8.00161C178.17 7.64829 177.701 7.3781 177.191 7.21183C176.701 7.04557 176.148 6.96243 175.552 6.96243C173.466 6.96243 172.444 8.33414 172.444 11.0983C172.444 12.4493 172.721 13.3222 173.274 14.008C173.828 14.7147 174.636 15.0472 175.701 15.0472Z" fill="#F8992D"/>
</svg>
