<svg width="181" height="26" viewBox="0 0 181 26" fill="none" xmlns="http://www.w3.org/2000/svg">
<path d="M43.8451 20.4716C39.1839 22.4044 34.097 23.3397 29.4996 23.3397C22.6674 23.3397 16.0481 21.5107 10.6845 18.4556C10.2162 18.1854 9.87566 18.6634 10.2588 18.9959C15.218 23.3813 21.7735 26 29.0739 26C34.2673 26 40.312 24.3996 44.4624 21.4068C45.1222 20.9288 44.5475 20.1806 43.8451 20.4716Z" fill="#FCAF17"/>
<path d="M41.2059 18.7883C40.8441 19.0377 40.9079 19.3911 41.3123 19.3495C42.6532 19.204 45.6543 18.8507 46.1651 19.5158C46.6972 20.1808 45.5692 22.9242 45.0796 24.1505C44.9306 24.5246 45.2499 24.6701 45.5904 24.3791C47.8253 22.5501 48.4 18.726 47.9317 18.1856C47.506 17.6245 43.5897 17.1464 41.2059 18.7883Z" fill="#FCAF17"/>
<path d="M49.3578 14.1328C48.0808 13.4262 46.5909 13.2392 45.2074 13.2599L48.9747 8.00172C49.3365 7.5237 49.5281 7.23273 49.5281 7.00411V5.65319C49.5281 5.42457 49.3365 5.2583 49.1024 5.2583H41.8232C41.5891 5.2583 41.4188 5.42457 41.4188 5.65319V7.25352C41.4188 7.48213 41.6104 7.6484 41.8445 7.6484H45.6544L41.2699 13.7795C40.9932 14.1744 40.9932 14.6109 40.9932 14.8811V16.4814C40.9932 16.71 41.2486 16.9802 41.504 16.8555C43.9942 15.5669 46.9527 15.6916 49.2088 16.8347C49.4855 16.9802 49.7409 16.71 49.7409 16.4814V14.7564C49.7197 14.5277 49.6558 14.2991 49.3578 14.1328Z" fill="white"/>
<path d="M12.5999 17.1464H14.8135C15.0476 17.1464 15.2391 16.9802 15.2391 16.7515V10.8698C15.2391 9.58125 15.1753 7.81465 16.7716 7.81465C18.3466 7.81465 18.1338 9.6436 18.1338 10.8698V16.7515C18.1338 16.9594 18.3041 17.1464 18.5382 17.1464H20.7517C20.9859 17.1464 21.1774 16.9802 21.1774 16.7515V10.8698C21.1774 10.2463 21.1561 9.31106 21.3903 8.74991C21.6244 8.18875 22.1778 7.83543 22.7099 7.83543C23.3484 7.83543 23.8379 8.04327 24.0082 8.79147C24.1146 9.22793 24.0721 10.4126 24.0721 10.8698V16.7515C24.0721 16.9594 24.2423 17.1464 24.4765 17.1464H26.69C26.9241 17.1464 27.1157 16.9594 27.1157 16.7515V9.74751C27.1157 8.56286 27.2647 7.19115 26.5623 6.25589C25.9451 5.42455 24.9234 5.02966 23.9869 5.02966C22.6886 5.02966 21.4541 5.69473 20.922 7.08723C20.3048 5.67395 19.4321 5.02966 18.0486 5.02966C16.6865 5.02966 15.6648 5.69473 15.1327 7.08723H15.1114V5.63238C15.0902 5.42455 14.9199 5.27906 14.707 5.25828H12.6425C12.4084 5.25828 12.2168 5.44533 12.2168 5.65317V16.7723C12.2168 16.9802 12.3871 17.1464 12.5999 17.1464Z" fill="white"/>
<path d="M55.8067 5.02966C52.5928 5.02966 50.8262 7.71073 50.8262 11.1816C50.8262 14.6109 52.5928 17.3751 55.8067 17.3751C58.9141 17.3751 60.8723 14.694 60.8723 11.2855C60.8723 7.79387 59.0844 5.02966 55.8067 5.02966ZM55.8067 15.0889C54.0614 15.0889 54.0826 12.2 54.0826 10.8283C54.0826 9.47733 54.1891 7.29506 55.8279 7.29506C56.5303 7.29506 57.0199 7.60682 57.2753 8.3758C57.5732 9.26949 57.6158 10.3918 57.6158 11.3271C57.5945 12.7611 57.5307 15.0889 55.8067 15.0889Z" fill="white"/>
<path d="M71.0464 6.33902C70.4291 5.38298 69.4501 5.02966 68.471 5.02966C66.9385 5.02966 66.0659 5.75708 65.4486 7.27428H65.4061V5.59082C65.3635 5.42455 65.2145 5.29985 65.023 5.27906H62.9584C62.7456 5.27906 62.554 5.44533 62.5327 5.63238V16.7515C62.5327 16.9594 62.703 17.1464 62.9371 17.1464H65.1507C65.3848 17.1464 65.5763 16.9802 65.5763 16.7515V10.7659C65.5763 10.0177 65.6189 9.33184 65.9382 8.66677C66.1936 8.1264 66.6831 7.77308 67.2152 7.77308C68.7477 7.77308 68.5987 9.53968 68.5987 10.7659V16.7931C68.62 16.9802 68.7902 17.1257 69.0031 17.1464H71.2379C71.4508 17.1464 71.6423 17.001 71.6636 16.7931V9.80986C71.6423 8.72912 71.6423 7.23271 71.0464 6.33902Z" fill="white"/>
<path d="M35.608 9.64351C34.3309 9.78899 32.6495 9.87213 31.4363 10.3917C30.0528 10.9737 29.0737 12.1791 29.0737 13.9249C29.0737 16.1695 30.5211 17.2918 32.3941 17.2918C33.9691 17.2918 34.8417 16.9385 36.0549 15.7123C36.4593 16.2734 36.587 16.5644 37.332 17.1463C37.5022 17.2295 37.7151 17.2295 37.8641 17.1048C38.311 16.7099 39.1198 16.0448 39.5668 15.6707C39.7371 15.5252 39.7158 15.2966 39.5668 15.0888C39.1624 14.5484 38.7367 14.0912 38.7367 13.0728V9.72664C38.7367 8.29258 38.8431 6.98322 37.7577 6.0064C36.9063 5.21663 35.5015 4.92566 34.416 4.92566C32.3089 4.92566 29.9464 5.69465 29.4568 8.23023C29.4143 8.50042 29.6058 8.6459 29.7974 8.68747L31.9258 8.93687C32.1174 8.93687 32.2664 8.72904 32.3089 8.54199C32.5005 7.66908 33.2454 7.23263 34.0968 7.23263C34.5438 7.23263 35.0759 7.39889 35.3313 7.79378C35.6505 8.23023 35.608 8.85374 35.608 9.35254V9.64351ZM35.1823 14.1327C34.8204 14.7355 34.2671 15.1096 33.6498 15.1096C32.7985 15.1096 32.3089 14.4861 32.3089 13.53C32.3089 11.6803 34.0116 11.3478 35.608 11.3478V11.8466C35.608 12.6779 35.6292 13.3845 35.1823 14.1327Z" fill="white"/>
<path d="M10.4718 15.1095C10.0674 14.5692 9.64171 14.1327 9.64171 13.1143V9.72661C9.64171 8.29255 9.74813 6.98319 8.66264 6.00637C7.81128 5.2166 6.40652 4.94641 5.32103 4.94641C3.2139 4.94641 0.851365 5.7154 0.36183 8.25099C0.319262 8.52117 0.510819 8.66666 0.702376 8.70822L2.85207 8.93684C3.04363 8.93684 3.19262 8.72901 3.23519 8.54195C3.42674 7.66905 4.17169 7.23259 5.02305 7.23259C5.47002 7.23259 6.00212 7.39886 6.25753 7.79375C6.5768 8.2302 6.53423 8.85371 6.53423 9.35251V9.64348C5.2359 9.78896 3.57573 9.8721 2.36254 10.3917C0.97907 10.9736 0 12.1791 0 13.9249C0 16.1695 1.44732 17.2918 3.32032 17.2918C4.89535 17.2918 5.74671 16.9385 6.98119 15.7123C7.38559 16.2734 7.5133 16.5644 8.25824 17.1463C8.40723 17.271 8.62007 17.2502 8.76906 17.1255C9.21603 16.7514 10.0248 16.0656 10.4718 15.6915C10.6633 15.546 10.6208 15.3174 10.4718 15.1095ZM6.53423 11.8465C6.53423 12.6779 6.55551 13.3845 6.12983 14.1327C5.768 14.7562 5.21461 15.1303 4.57609 15.1303C3.72472 15.1303 3.23519 14.486 3.23519 13.5508C3.23519 11.701 4.93792 11.3685 6.53423 11.3685V11.8465Z" fill="white"/>
<path d="M77.7724 17.4581C76.6443 17.4581 75.7291 17.1463 75.048 16.502C74.3669 15.8785 74.0264 15.0264 74.0264 13.9664C74.0264 12.8233 74.4308 11.9089 75.2821 11.2438C76.1122 10.5579 77.2403 10.2254 78.645 10.2254C79.539 10.2254 80.5393 10.3501 81.6674 10.6203V9.08231C81.6674 8.23019 81.4758 7.81452 81.0714 7.48199C80.6883 7.12867 80.0072 6.9624 79.0707 6.9624C77.9639 6.9624 76.8784 7.12867 75.8355 7.44042C75.4737 7.54434 75.2396 7.60669 75.1331 7.60669C74.9416 7.60669 74.8352 7.4612 74.8352 7.19102V6.56751C74.8352 6.35968 74.8777 6.21419 74.9203 6.13106C74.9842 6.04793 75.1119 5.94401 75.3034 5.88166C75.793 5.65304 76.4315 5.48677 77.1764 5.36207C77.9426 5.23737 78.6876 5.15424 79.4325 5.15424C80.9437 5.15424 82.0718 5.46599 82.7954 6.06871C83.5191 6.69221 83.8809 7.62747 83.8809 8.89526V16.7306C83.8809 17.0424 83.7106 17.2087 83.4127 17.2087H82.3698C82.0718 17.2087 81.8802 17.0632 81.8376 16.7722L81.7099 16.0032C81.1353 16.4812 80.4967 16.8553 79.7944 17.1255C79.1558 17.3126 78.4535 17.4581 77.7724 17.4581ZM78.3471 15.6915C78.8792 15.6915 79.4325 15.5875 80.0072 15.3797C80.5819 15.1719 81.1353 14.8809 81.6674 14.486V12.1167C80.7947 11.9089 79.9646 11.805 79.1346 11.805C77.3254 11.805 76.4315 12.4908 76.4315 13.8417C76.4315 14.4445 76.6018 14.8809 76.9423 15.2134C77.2403 15.546 77.7298 15.6915 78.3471 15.6915Z" fill="white"/>
<path d="M90.3938 17.4166C89.3296 17.4166 88.4357 17.1672 87.6695 16.6476C86.9032 16.128 86.3073 15.4213 85.9029 14.4861C85.4985 13.5716 85.2856 12.4909 85.2856 11.2854C85.2856 9.99686 85.4985 9.04082 85.9242 8.06399C86.3498 7.10795 86.9671 6.38053 87.7546 5.86094C88.5421 5.36214 89.4361 5.09195 90.4577 5.09195C91.8199 5.09195 93.0331 5.52841 94.1186 6.40131V0.47802C94.1398 0.166268 94.2888 0 94.6081 0H96.0128C96.3321 0 96.5024 0.166268 96.5024 0.47802V16.6891C96.5024 17.0009 96.3321 17.1672 96.0128 17.1672H94.9486C94.7997 17.1672 94.6932 17.1256 94.6081 17.0632C94.523 17.0009 94.4591 16.8762 94.3952 16.6891L94.2037 15.9409C93.6716 16.419 93.0756 16.7723 92.3945 17.0217C91.756 17.2711 91.0749 17.4166 90.3938 17.4166ZM91.1175 15.546C92.1179 15.546 93.1182 15.1927 94.1398 14.4653V8.00164C93.6503 7.64832 93.1395 7.37814 92.65 7.21187C92.1391 7.0456 91.5857 6.96247 90.9898 6.96247C88.8188 6.96247 87.7333 8.25104 87.7333 11.2023C87.712 14.0912 88.8401 15.546 91.1175 15.546Z" fill="white"/>
<path d="M102.589 17.1466C102.355 17.1466 102.206 17.105 102.1 17.0634C101.993 17.0011 101.887 16.814 101.78 16.5231L97.5448 6.13133C97.5022 6.04819 97.4809 5.94428 97.4384 5.86114C97.3958 5.75722 97.3745 5.67409 97.3745 5.61174C97.3745 5.40391 97.5022 5.29999 97.7363 5.29999H99.1411C99.3752 5.29999 99.5455 5.34155 99.6519 5.40391C99.7583 5.46626 99.8435 5.65331 99.9712 5.94428L103.249 15.0682L106.527 5.94428C106.633 5.65331 106.74 5.46626 106.846 5.40391C106.931 5.34155 107.101 5.29999 107.357 5.29999H108.676C108.911 5.29999 109.038 5.40391 109.038 5.61174C109.038 5.69487 109.017 5.77801 108.974 5.86114C108.932 5.94428 108.889 6.04819 108.868 6.13133L104.654 16.5231C104.505 16.814 104.398 17.0011 104.292 17.0634C104.185 17.1258 104.015 17.1466 103.802 17.1466H102.589Z" fill="white"/>
<path d="M114.828 17.4996C112.87 17.4996 111.38 16.98 110.379 15.8993C109.379 14.8393 108.868 13.2806 108.868 11.2022C108.868 9.22781 109.379 7.66905 110.379 6.58831C111.38 5.48678 112.784 4.94641 114.594 4.94641C116.105 4.94641 117.275 5.36208 118.084 6.19342C118.893 7.02476 119.297 8.20942 119.297 9.7474C119.297 10.2462 119.255 10.745 119.17 11.2646C119.127 11.4516 119.085 11.5763 119.021 11.6387C118.957 11.701 118.829 11.7218 118.68 11.7218H111.146C111.167 13.0728 111.507 14.0496 112.167 14.6939C112.806 15.3382 113.827 15.6499 115.168 15.6499C115.637 15.6499 116.105 15.6083 116.552 15.546C116.999 15.4836 117.552 15.3589 118.212 15.1511C118.318 15.1095 118.425 15.0888 118.51 15.068C118.595 15.0472 118.659 15.0264 118.723 15.0264C118.936 15.0264 119.042 15.1719 119.042 15.4421V16.1071C119.042 16.315 118.999 16.4605 118.936 16.5436C118.872 16.6267 118.744 16.7306 118.531 16.8138C118.042 17.0216 117.488 17.1879 116.807 17.3126C116.169 17.4373 115.488 17.4996 114.828 17.4996ZM117.126 10.1838C117.148 10.0591 117.148 9.85131 117.148 9.58113C117.148 8.62509 116.914 7.91845 116.467 7.41965C116.02 6.94163 115.339 6.69222 114.466 6.69222C113.466 6.69222 112.678 6.98319 112.125 7.56513C111.571 8.14707 111.252 9.01997 111.167 10.1838H117.126Z" fill="white"/>
<path d="M121.362 17.1464C121.043 17.1464 120.873 16.9801 120.873 16.6683V5.75702C120.873 5.44526 121.043 5.279 121.362 5.279H122.426C122.597 5.279 122.703 5.32056 122.788 5.38291C122.873 5.44526 122.937 5.56996 122.958 5.73623L123.129 7.04559C123.554 6.58836 123.959 6.23504 124.342 5.96485C124.725 5.69467 125.129 5.50761 125.534 5.38291C125.938 5.25821 126.385 5.19586 126.832 5.19586C127.024 5.19586 127.215 5.19586 127.407 5.21665C127.683 5.25821 127.811 5.38291 127.811 5.63232V6.90011C127.811 7.17029 127.662 7.31578 127.385 7.31578C127.237 7.31578 127.109 7.31578 126.96 7.29499C126.832 7.27421 126.704 7.27421 126.534 7.27421C125.257 7.27421 124.172 7.64831 123.256 8.39652V16.6891C123.256 17.0009 123.086 17.1671 122.788 17.1671H121.362V17.1464Z" fill="white"/>
<path d="M134.622 17.3125C132.345 17.3125 131.217 16.211 131.217 13.9872V7.08707H129.493C129.174 7.08707 129.003 6.92081 129.003 6.60905V6.0479C129.003 5.88163 129.046 5.77771 129.11 5.69458C129.174 5.61145 129.323 5.56988 129.536 5.52831L131.281 5.32048L131.6 2.41079C131.643 2.09904 131.792 1.95355 132.111 1.95355H133.111C133.431 1.95355 133.601 2.11982 133.601 2.41079V5.25813H136.708C137.028 5.25813 137.198 5.42439 137.198 5.73615V6.62984C137.198 6.94159 137.028 7.10786 136.708 7.10786H133.601V13.8833C133.601 14.4652 133.728 14.8601 134.005 15.1095C134.261 15.3381 134.729 15.4628 135.367 15.4628C135.665 15.4628 136.048 15.4213 136.495 15.3381C136.73 15.2966 136.9 15.2758 136.985 15.2758C137.113 15.2758 137.198 15.3173 137.24 15.3797C137.283 15.442 137.304 15.5667 137.304 15.7122V16.3357C137.304 16.5436 137.262 16.689 137.219 16.793C137.155 16.8969 137.028 16.98 136.836 17.0424C136.176 17.2086 135.453 17.3125 134.622 17.3125Z" fill="white"/>
<path d="M140.241 3.1592C139.773 3.1592 139.411 3.03449 139.156 2.76431C138.9 2.51491 138.751 2.16159 138.751 1.74592C138.751 1.33025 138.879 0.97693 139.156 0.727528C139.411 0.478126 139.773 0.332642 140.241 0.332642C140.71 0.332642 141.071 0.457343 141.327 0.727528C141.582 0.97693 141.731 1.33025 141.731 1.74592C141.731 2.16159 141.604 2.51491 141.327 2.76431C141.071 3.03449 140.71 3.1592 140.241 3.1592ZM139.518 17.1465C139.198 17.1465 139.028 17.001 139.028 16.6685V5.73635C139.028 5.4246 139.177 5.25833 139.518 5.25833H140.922C141.242 5.25833 141.412 5.4246 141.412 5.73635V16.6685C141.412 16.9802 141.242 17.1465 140.922 17.1465H139.518Z" fill="white"/>
<path d="M147.329 17.4997C145.988 17.4997 144.775 17.2711 143.711 16.8346C143.519 16.7515 143.391 16.6683 143.306 16.5852C143.242 16.5021 143.2 16.3358 143.2 16.1487V15.4837C143.2 15.2135 143.285 15.068 143.498 15.068C143.604 15.068 143.817 15.1096 144.094 15.2135C145.158 15.546 146.243 15.7123 147.371 15.7123C148.159 15.7123 148.755 15.5668 149.159 15.2758C149.564 14.9849 149.777 14.5484 149.777 13.9873C149.777 13.6132 149.649 13.3014 149.415 13.0728C149.159 12.8442 148.712 12.6156 148.052 12.3661L146.009 11.5972C144.221 10.9529 143.349 9.85135 143.349 8.31337C143.349 7.29498 143.753 6.48442 144.562 5.86092C145.371 5.23741 146.435 4.92566 147.733 4.92566C148.776 4.92566 149.776 5.11271 150.777 5.46603C150.968 5.52838 151.096 5.61151 151.181 5.71543C151.266 5.81935 151.309 5.96483 151.309 6.17267V6.79617C151.309 7.06636 151.203 7.21184 150.99 7.21184C150.883 7.21184 150.692 7.17028 150.436 7.08714C149.585 6.83774 148.734 6.71304 147.84 6.71304C146.307 6.71304 145.541 7.21184 145.541 8.23023C145.541 8.6459 145.669 8.95766 145.924 9.18628C146.179 9.41489 146.69 9.68508 147.435 9.95526L149.308 10.6619C150.245 11.0152 150.926 11.4517 151.352 11.9297C151.756 12.4285 151.969 13.052 151.969 13.8418C151.969 14.9433 151.543 15.837 150.692 16.4813C149.862 17.1671 148.734 17.4997 147.329 17.4997Z" fill="white"/>
<path d="M154.693 3.1592C154.225 3.1592 153.863 3.03449 153.608 2.76431C153.352 2.51491 153.203 2.16159 153.203 1.74592C153.203 1.33025 153.331 0.97693 153.608 0.727528C153.863 0.478126 154.225 0.332642 154.693 0.332642C155.161 0.332642 155.523 0.457343 155.779 0.727528C156.034 0.97693 156.183 1.33025 156.183 1.74592C156.183 2.16159 156.055 2.51491 155.779 2.76431C155.523 3.03449 155.161 3.1592 154.693 3.1592ZM153.991 17.1465C153.671 17.1465 153.501 17.001 153.501 16.6685V5.73635C153.501 5.4246 153.65 5.25833 153.991 5.25833H155.395C155.715 5.25833 155.885 5.4246 155.885 5.73635V16.6685C155.885 16.9802 155.715 17.1465 155.395 17.1465H153.991Z" fill="white"/>
<path d="M158.332 17.1463C158.013 17.1463 157.843 17.0009 157.843 16.6683V5.73622C157.843 5.42446 158.013 5.2582 158.332 5.2582H159.397C159.545 5.2582 159.673 5.27898 159.758 5.36211C159.843 5.42446 159.907 5.54916 159.929 5.71543L160.078 6.58834C161.589 5.48681 163.185 4.92566 164.867 4.92566C166.037 4.92566 166.91 5.21663 167.527 5.81935C168.144 6.42207 168.442 7.29498 168.442 8.43807V16.6683C168.442 16.9801 168.272 17.1463 167.953 17.1463H166.548C166.229 17.1463 166.058 17.0009 166.058 16.6683V9.20706C166.058 8.37572 165.888 7.773 165.548 7.37811C165.207 6.98322 164.675 6.79617 163.93 6.79617C162.674 6.79617 161.418 7.19106 160.205 7.98083V16.6683C160.205 16.9801 160.035 17.1463 159.716 17.1463H158.332Z" fill="white"/>
<path d="M175.147 22.2384C173.828 22.2384 172.614 22.0097 171.486 21.5317C171.295 21.4486 171.167 21.3654 171.103 21.2823C171.039 21.1784 171.018 21.0329 171.018 20.8459V20.16C171.018 19.869 171.103 19.7443 171.316 19.7443C171.423 19.7443 171.529 19.7651 171.657 19.8067C171.784 19.8483 171.976 19.9106 172.21 19.973C173.21 20.2431 174.126 20.3678 174.956 20.3678C176.233 20.3678 177.169 20.0769 177.765 19.4742C178.361 18.8714 178.659 17.9154 178.659 16.5852V15.5253C178.106 15.9825 177.531 16.3151 176.914 16.5645C176.297 16.8139 175.658 16.9178 175.02 16.9178C173.998 16.9178 173.104 16.6684 172.359 16.1696C171.614 15.6708 171.039 14.9849 170.635 14.0912C170.231 13.1975 170.039 12.3454 170.039 11.2023C170.039 9.33181 170.486 7.8354 171.401 6.73388C172.316 5.63235 173.53 5.09198 175.062 5.09198C176.509 5.09198 177.744 5.57 178.829 6.54682L178.957 5.90254C179 5.73627 179.042 5.61157 179.127 5.54922C179.213 5.48687 179.34 5.4453 179.489 5.4453H180.511C180.83 5.4453 181 5.61157 181 5.92332V16.419C181 18.2687 180.49 19.7028 179.468 20.7212C178.468 21.7396 177.02 22.2384 175.147 22.2384ZM175.701 15.0473C176.701 15.0473 177.68 14.6939 178.659 13.9665V8.00167C178.17 7.64835 177.701 7.37816 177.191 7.2119C176.701 7.04563 176.148 6.96249 175.552 6.96249C173.466 6.96249 172.444 8.3342 172.444 11.0984C172.444 12.4493 172.721 13.3222 173.274 14.0081C173.828 14.7147 174.636 15.0473 175.701 15.0473Z" fill="white"/>
</svg>
