<svg width="18" height="16" viewBox="0 0 18 16" fill="none" xmlns="http://www.w3.org/2000/svg">
<path fill-rule="evenodd" clip-rule="evenodd" d="M18 8C18 8.28411 17.8871 8.55658 17.6862 8.75748C17.4853 8.95837 17.2129 9.07124 16.9288 9.07124L3.65911 9.07124L8.259 13.669C8.3586 13.7686 8.4376 13.8868 8.49151 14.017C8.54541 14.1471 8.57315 14.2866 8.57315 14.4274C8.57315 14.5683 8.54541 14.7077 8.49151 14.8379C8.4376 14.968 8.3586 15.0862 8.259 15.1858C8.1594 15.2854 8.04116 15.3645 7.91103 15.4184C7.78089 15.4723 7.64142 15.5 7.50056 15.5C7.35971 15.5 7.22023 15.4723 7.0901 15.4184C6.95997 15.3645 6.84173 15.2854 6.74213 15.1858L0.314716 8.75844C0.214955 8.65893 0.135806 8.54071 0.0818018 8.41057C0.0277977 8.28042 0 8.14091 0 8C0 7.8591 0.0277977 7.71958 0.0818018 7.58943C0.135806 7.45929 0.214955 7.34107 0.314716 7.24157L6.74213 0.814154C6.94328 0.613005 7.2161 0.5 7.50056 0.5C7.78503 0.5 8.05785 0.613005 8.259 0.814154C8.46015 1.0153 8.57315 1.28812 8.57315 1.57259C8.57315 1.85706 8.46015 2.12987 8.259 2.33102L3.65911 6.92877L16.9288 6.92877C17.2129 6.92877 17.4853 7.04163 17.6862 7.24252C17.8871 7.44342 18 7.71589 18 8Z" fill="#0057D3"/>
</svg>
