<svg width="20" height="14" viewBox="0 0 20 14" fill="none" xmlns="http://www.w3.org/2000/svg">
<g clip-path="url(#clip0_1009_10025)">
<mask id="mask0_1009_10025" style="mask-type:alpha" maskUnits="userSpaceOnUse" x="0" y="0" width="20" height="14">
<path d="M18.0952 0H1.90476C0.852791 0 0 0.835735 0 1.86667V12.1333C0 13.1643 0.852791 14 1.90476 14H18.0952C19.1472 14 20 13.1643 20 12.1333V1.86667C20 0.835735 19.1472 0 18.0952 0Z" fill="white"/>
</mask>
<g mask="url(#mask0_1009_10025)">
<path d="M18.0952 0H1.90476C0.852791 0 0 0.835735 0 1.86667V12.1333C0 13.1643 0.852791 14 1.90476 14H18.0952C19.1472 14 20 13.1643 20 12.1333V1.86667C20 0.835735 19.1472 0 18.0952 0Z" fill="#009C34"/>
<path fill-rule="evenodd" clip-rule="evenodd" d="M10 1.8667L17.1429 7.00003L10 12.1334L2.85718 7.00003" fill="#F8E23D"/>
<path d="M9.99996 10.2666C11.8409 10.2666 13.3333 8.80407 13.3333 6.99994C13.3333 5.19581 11.8409 3.73328 9.99996 3.73328C8.15901 3.73328 6.66663 5.19581 6.66663 6.99994C6.66663 8.80407 8.15901 10.2666 9.99996 10.2666Z" fill="#002478"/>
<path fill-rule="evenodd" clip-rule="evenodd" d="M8.57141 8.40002V9.33336H9.52379V8.40002H8.57141ZM10.4762 8.40002V9.33336H11.4286V8.40002H10.4762Z" fill="#91A1C3"/>
<path d="M7.61902 5.59998C7.61902 5.59998 9.77521 5.97331 11.3295 6.62478L13.3333 7.46664" stroke="#C9D0E0"/>
<path d="M18.0952 0.466675H1.90477C1.11579 0.466675 0.476196 1.09348 0.476196 1.86667V12.1333C0.476196 12.9065 1.11579 13.5333 1.90477 13.5333H18.0952C18.8842 13.5333 19.5238 12.9065 19.5238 12.1333V1.86667C19.5238 1.09348 18.8842 0.466675 18.0952 0.466675Z" stroke="black" stroke-opacity="0.1"/>
</g>
</g>
<defs>
<clipPath id="clip0_1009_10025">
<rect width="20" height="14" fill="white"/>
</clipPath>
</defs>
</svg>
