<svg width="20" height="14" viewBox="0 0 20 14" fill="none" xmlns="http://www.w3.org/2000/svg">
<g clip-path="url(#clip0_1435_13878)">
<mask id="mask0_1435_13878" style="mask-type:alpha" maskUnits="userSpaceOnUse" x="0" y="0" width="20" height="14">
<path d="M18.0952 0H1.90476C0.852791 0 0 0.835735 0 1.86667V12.1333C0 13.1643 0.852791 14 1.90476 14H18.0952C19.1472 14 20 13.1643 20 12.1333V1.86667C20 0.835735 19.1472 0 18.0952 0Z" fill="white"/>
</mask>
<g mask="url(#mask0_1435_13878)">
<path d="M18.0952 0H1.90476C0.852791 0 0 0.835735 0 1.86667V12.1333C0 13.1643 0.852791 14 1.90476 14H18.0952C19.1472 14 20 13.1643 20 12.1333V1.86667C20 0.835735 19.1472 0 18.0952 0Z" fill="#009C34"/>
<path fill-rule="evenodd" clip-rule="evenodd" d="M9.99979 1.86664L17.1426 6.99997L9.99979 12.1333L2.85693 6.99997" fill="#F8E23D"/>
<path d="M9.99984 10.2667C11.8408 10.2667 13.3332 8.80413 13.3332 7C13.3332 5.19587 11.8408 3.73334 9.99984 3.73334C8.15889 3.73334 6.6665 5.19587 6.6665 7C6.6665 8.80413 8.15889 10.2667 9.99984 10.2667Z" fill="#002478"/>
<path fill-rule="evenodd" clip-rule="evenodd" d="M8.57129 8.40002V9.33336H9.52367V8.40002H8.57129ZM10.4761 8.40002V9.33336H11.4284V8.40002H10.4761Z" fill="#91A1C3"/>
<path d="M7.61914 5.59998C7.61914 5.59998 9.77533 5.97331 11.3296 6.62478L13.3334 7.46664" stroke="#C9D0E0"/>
<path d="M18.0951 0.466675H1.90465C1.11567 0.466675 0.476074 1.09348 0.476074 1.86667V12.1333C0.476074 12.9065 1.11567 13.5333 1.90465 13.5333H18.0951C18.8841 13.5333 19.5237 12.9065 19.5237 12.1333V1.86667C19.5237 1.09348 18.8841 0.466675 18.0951 0.466675Z" stroke="black" stroke-opacity="0.1"/>
</g>
</g>
<defs>
<clipPath id="clip0_1435_13878">
<rect width="20" height="14" fill="white"/>
</clipPath>
</defs>
</svg>
