<svg width="24" height="24" viewBox="0 0 24 24" fill="none" xmlns="http://www.w3.org/2000/svg">
<path d="M16.6056 10.3395L16.6202 10.3944L16.6728 10.3729C16.8625 10.2956 17.0692 10.253 17.2856 10.253C18.2021 10.253 18.95 11.018 18.95 11.9608V14.1151C18.95 16.647 18.5463 19.2296 17.7827 21.5833C17.7115 21.8028 17.5117 21.9497 17.288 21.9497L10.428 21.95C10.2211 21.95 10.033 21.8242 9.9499 21.6282L9.90387 21.6477L9.9499 21.6282L8.85018 19.0358L8.84651 19.0271L8.83995 19.0204L5.62065 15.7196C4.85978 14.9395 4.85978 13.6696 5.62065 12.8895C6.38087 12.1101 7.61732 12.1101 8.37746 12.8895L8.41326 12.8546L8.37747 12.8895L8.67773 13.1972L8.76351 13.2852V13.1623V9.80745V9.77617L8.7354 9.76249C7.37066 9.09827 6.47763 7.6759 6.47763 6.10152C6.47763 3.86635 8.25098 2.05 10.428 2.05C12.6049 2.05 14.3783 3.86635 14.3783 6.10152C14.3783 6.86834 14.1682 7.61006 13.7777 8.24956L13.7557 8.28564L13.7876 8.31336C14.041 8.53353 14.2299 8.82983 14.3198 9.16761L14.3344 9.22249L14.387 9.20105C14.5767 9.12371 14.7834 9.08116 14.9997 9.08116C15.7649 9.08116 16.4126 9.61437 16.6056 10.3395ZM8.68298 8.48494L8.76351 8.54703V8.44534V6.10152C8.76351 5.15869 9.51136 4.39371 10.4279 4.39375C11.3444 4.39375 12.0923 5.15869 12.0923 6.10152V7.95968V8.03105L12.1594 8.00667C12.3329 7.94362 12.5194 7.90929 12.7138 7.90929H12.7391L12.7541 7.88884C13.1306 7.37508 13.3353 6.75042 13.3353 6.10152C13.3353 4.4597 12.0322 3.12187 10.4279 3.12187C8.8236 3.12187 7.52056 4.4597 7.52056 6.10152C7.52056 7.05408 7.96529 7.93157 8.68298 8.48494ZM16.8715 20.8779H16.9086L16.9193 20.8423C17.5615 18.7216 17.9021 16.4235 17.907 14.1651H17.9072V14.1151V11.9608C17.9072 11.6113 17.6296 11.3249 17.2857 11.3249C16.9418 11.3249 16.6642 11.6113 16.6642 11.9608C16.6642 12.258 16.4296 12.4967 16.1428 12.4967C15.8559 12.4967 15.6213 12.258 15.6213 11.9608V10.7889C15.6213 10.4394 15.3437 10.153 14.9998 10.153C14.6559 10.153 14.3783 10.4394 14.3783 10.7889V11.9608C14.3783 12.258 14.1437 12.4967 13.8568 12.4967C13.57 12.4967 13.3354 12.258 13.3354 11.9608V11.9593V11.9578V11.9563V11.9547V11.9531V11.9514V11.9497V11.948V11.9462V11.9444V11.9426V11.9407V11.9388V11.9369V11.9349V11.9329V11.9309V11.9288V11.9267V11.9246V11.9224V11.9202V11.9179V11.9157V11.9134V11.911V11.9086V11.9062V11.9038V11.9013V11.8988V11.8963V11.8937V11.8911V11.8885V11.8858V11.8831V11.8804V11.8776V11.8748V11.872V11.8692V11.8663V11.8634V11.8604V11.8575V11.8545V11.8514V11.8484V11.8453V11.8422V11.839V11.8358V11.8326V11.8294V11.8261V11.8228V11.8195V11.8161V11.8128V11.8094V11.8059V11.8025V11.799V11.7954V11.7919V11.7883V11.7847V11.7811V11.7775V11.7738V11.7701V11.7663V11.7626V11.7588V11.755V11.7511V11.7473V11.7434V11.7395V11.7355V11.7316V11.7276V11.7236V11.7195V11.7155V11.7114V11.7073V11.7032V11.699V11.6948V11.6906V11.6864V11.6821V11.6779V11.6736V11.6692V11.6649V11.6605V11.6561V11.6517V11.6473V11.6428V11.6384V11.6339V11.6293V11.6248V11.6202V11.6157V11.6111V11.6064V11.6018V11.5971V11.5924V11.5877V11.583V11.5782V11.5735V11.5687V11.5639V11.5591V11.5542V11.5493V11.5445V11.5396V11.5346V11.5297V11.5247V11.5198V11.5148V11.5098V11.5047V11.4997V11.4946V11.4895V11.4844V11.4793V11.4742V11.469V11.4638V11.4587V11.4535V11.4482V11.443V11.4378V11.4325V11.4272V11.4219V11.4166V11.4113V11.4059V11.4006V11.3952V11.3898V11.3844V11.379V11.3736V11.3681V11.3627V11.3572V11.3517V11.3462V11.3407V11.3352V11.3296V11.3241V11.3185V11.3129V11.3073V11.3017V11.2961V11.2905V11.2848V11.2792V11.2735V11.2678V11.2622V11.2565V11.2507V11.245V11.2393V11.2336V11.2278V11.222V11.2163V11.2105V11.2047V11.1989V11.1931V11.1872V11.1814V11.1756V11.1697V11.1639V11.158V11.1521V11.1462V11.1403V11.1344V11.1285V11.1226V11.1167V11.1107V11.1048V11.0989V11.0929V11.0869V11.081V11.075V11.069V11.063V11.057V11.051V11.045V11.039V11.033V11.0269V11.0209V11.0149V11.0088V11.0028V10.9967V10.9907V10.9846V10.9785V10.9725V10.9664V10.9603V10.9542V10.9481V10.942V10.9359V10.9298V10.9237V10.9176V10.9115V10.9054V10.8993V10.8932V10.8871V10.8809V10.8748V10.8687V10.8626V10.8564V10.8503V10.8442V10.838V10.8319V10.8258V10.8196V10.8135V10.8074V10.8012V10.7951V10.7889V10.7828V10.7767V10.7705V10.7644V10.7583V10.7521V10.746V10.7399V10.7337V10.7276V10.7215V10.7153V10.7092V10.7031V10.6969V10.6908V10.6847V10.6786V10.6725V10.6664V10.6603V10.6542V10.6481V10.642V10.6359V10.6298V10.6237V10.6176V10.6115V10.6054V10.5994V10.5933V10.5872V10.5812V10.5751V10.5691V10.563V10.557V10.551V10.5449V10.5389V10.5329V10.5269V10.5209V10.5149V10.5089V10.5029V10.4969V10.491V10.485V10.479V10.4731V10.4671V10.4612V10.4553V10.4494V10.4435V10.4376V10.4317V10.4258V10.4199V10.414V10.4082V10.4023V10.3965V10.3906V10.3848V10.379V10.3732V10.3674V10.3616V10.3559V10.3501V10.3443V10.3386V10.3329V10.3272V10.3214V10.3157V10.3101V10.3044V10.2987V10.2931V10.2874V10.2818V10.2762V10.2706V10.265V10.2594V10.2538V10.2483V10.2427V10.2372V10.2317V10.2262V10.2207V10.2152V10.2098V10.2043V10.1989V10.1935V10.1881V10.1827V10.1773V10.172V10.1666V10.1613V10.156V10.1507V10.1454V10.1401V10.1349V10.1297V10.1244V10.1192V10.1141V10.1089V10.1037V10.0986V10.0935V10.0884V10.0833V10.0782V10.0732V10.0681V10.0631V10.0581V10.0532V10.0482V10.0433V10.0383V10.0334V10.0286V10.0237V10.0188V10.014V10.0092V10.0044V9.99965V9.99491V9.99018V9.98547V9.98078V9.97612V9.97147V9.96684V9.96224V9.95765V9.95309V9.94855V9.94403V9.93953V9.93505V9.9306V9.92617V9.92176V9.91737V9.913V9.90866V9.90434V9.90004V9.89577V9.89151V9.88729V9.88308V9.8789V9.87474V9.87061V9.8665V9.86241V9.85835V9.85431V9.8503V9.84631V9.84235V9.83841V9.8345V9.83061V9.82675V9.82292V9.81911V9.81532V9.81156V9.80783V9.80412V9.80045V9.79679V9.79317V9.78957V9.78599V9.78245V9.77893V9.77544V9.77198V9.76854V9.76513V9.76175V9.7584V9.75508V9.75179V9.74852V9.74528V9.74207V9.73889V9.73574V9.73262V9.72953V9.72647V9.72344V9.72044V9.71746V9.71452V9.71161V9.70873V9.70588V9.70306V9.70027V9.69751V9.69478V9.69209V9.68942V9.68679V9.68419V9.68162V9.67908V9.67658V9.67411V9.67167V9.66926V9.66688V9.66454V9.66223V9.65996V9.65772V9.65551V9.65333V9.65119V9.64908V9.64701V9.64497V9.64296V9.64099V9.63906V9.63715V9.63529V9.63346V9.63166V9.6299V9.62817V9.62648V9.62483V9.62321V9.62163V9.62008V9.61857V9.61709C13.3354 9.26758 13.0578 8.98116 12.7139 8.98116C12.37 8.98116 12.0924 9.26758 12.0924 9.61709V9.61857V9.62008V9.62163V9.62321V9.62483V9.62648V9.62817V9.6299V9.63166V9.63346V9.63529V9.63715V9.63906V9.64099V9.64296V9.64497V9.64701V9.64908V9.65119V9.65333V9.65551V9.65772V9.65996V9.66223V9.66454V9.66688V9.66926V9.67167V9.67411V9.67658V9.67908V9.68162V9.68419V9.68679V9.68942V9.69209V9.69478V9.69751V9.70027V9.70306V9.70588V9.70873V9.71161V9.71452V9.71746V9.72044V9.72344V9.72647V9.72953V9.73262V9.73574V9.73889V9.74207V9.74528V9.74852V9.75179V9.75508V9.7584V9.76175V9.76513V9.76854V9.77198V9.77544V9.77893V9.78245V9.78599V9.78957V9.79317V9.79679V9.80045V9.80412V9.80783V9.81156V9.81532V9.81911V9.82292V9.82675V9.83061V9.8345V9.83841V9.84235V9.84631V9.8503V9.85431V9.85835V9.86241V9.8665V9.87061V9.87474V9.8789V9.88308V9.88729V9.89151V9.89577V9.90004V9.90434V9.90866V9.913V9.91737V9.92176V9.92617V9.9306V9.93505V9.93953V9.94403V9.94855V9.95309V9.95765V9.96224V9.96684V9.97147V9.97612V9.98078V9.98547V9.99018V9.99491V9.99965V10.0044V10.0092V10.014V10.0188V10.0237V10.0286V10.0334V10.0383V10.0433V10.0482V10.0532V10.0581V10.0631V10.0681V10.0732V10.0782V10.0833V10.0884V10.0935V10.0986V10.1037V10.1089V10.1141V10.1192V10.1244V10.1297V10.1349V10.1401V10.1454V10.1507V10.156V10.1613V10.1666V10.172V10.1773V10.1827V10.1881V10.1935V10.1989V10.2043V10.2098V10.2152V10.2207V10.2262V10.2317V10.2372V10.2427V10.2483V10.2538V10.2594V10.265V10.2706V10.2762V10.2818V10.2874V10.2931V10.2987V10.3044V10.3101V10.3157V10.3214V10.3272V10.3329V10.3386V10.3443V10.3501V10.3559V10.3616V10.3674V10.3732V10.379V10.3848V10.3906V10.3965V10.4023V10.4082V10.414V10.4199V10.4258V10.4317V10.4376V10.4435V10.4494V10.4553V10.4612V10.4671V10.4731V10.479V10.485V10.491V10.4969V10.5029V10.5089V10.5149V10.5209V10.5269V10.5329V10.5389V10.5449V10.551V10.557V10.563V10.5691V10.5751V10.5812V10.5872V10.5933V10.5994V10.6054V10.6115V10.6176V10.6237V10.6298V10.6359V10.642V10.6481V10.6542V10.6603V10.6664V10.6725V10.6786V10.6847V10.6908V10.6969V10.7031V10.7092V10.7153V10.7215V10.7276V10.7337V10.7399V10.746V10.7521V10.7583V10.7644V10.7705V10.7767V10.7828V10.7889V10.7951V10.8012V10.8074V10.8135V10.8196V10.8258V10.8319V10.838V10.8442V10.8503V10.8564V10.8626V10.8687V10.8748V10.8809V10.8871V10.8932V10.8993V10.9054V10.9115V10.9176V10.9237V10.9298V10.9359V10.942V10.9481V10.9542V10.9603V10.9664V10.9725V10.9785V10.9846V10.9907V10.9967V11.0028V11.0088V11.0149V11.0209V11.0269V11.033V11.039V11.045V11.051V11.057V11.063V11.069V11.075V11.081V11.0869V11.0929V11.0989V11.1048V11.1107V11.1167V11.1226V11.1285V11.1344V11.1403V11.1462V11.1521V11.158V11.1639V11.1697V11.1756V11.1814V11.1872V11.1931V11.1989V11.2047V11.2105V11.2163V11.222V11.2278V11.2336V11.2393V11.245V11.2507V11.2565V11.2622V11.2678V11.2735V11.2792V11.2848V11.2905V11.2961V11.3017V11.3073V11.3129V11.3185V11.3241V11.3296V11.3352V11.3407V11.3462V11.3517V11.3572V11.3627V11.3681V11.3736V11.379V11.3844V11.3898V11.3952V11.4006V11.4059V11.4113V11.4166V11.4219V11.4272V11.4325V11.4378V11.443V11.4482V11.4535V11.4587V11.4638V11.469V11.4742V11.4793V11.4844V11.4895V11.4946V11.4997V11.5047V11.5098V11.5148V11.5198V11.5247V11.5297V11.5346V11.5396V11.5445V11.5493V11.5542V11.5591V11.5639V11.5687V11.5735V11.5782V11.583V11.5877V11.5924V11.5971V11.6018V11.6064V11.6111V11.6157V11.6202V11.6248V11.6293V11.6339V11.6384V11.6428V11.6473V11.6517V11.6561V11.6605V11.6649V11.6692V11.6736V11.6779V11.6821V11.6864V11.6906V11.6948V11.699V11.7032V11.7073V11.7114V11.7155V11.7195V11.7236V11.7276V11.7316V11.7355V11.7395V11.7434V11.7473V11.7511V11.755V11.7588V11.7626V11.7663V11.7701V11.7738V11.7775V11.7811V11.7847V11.7883V11.7919V11.7954V11.799V11.8025V11.8059V11.8094V11.8128V11.8161V11.8195V11.8228V11.8261V11.8294V11.8326V11.8358V11.839V11.8422V11.8453V11.8484V11.8514V11.8545V11.8575V11.8604V11.8634V11.8663V11.8692V11.872V11.8748V11.8776V11.8804V11.8831V11.8858V11.8885V11.8911V11.8937V11.8963V11.8988V11.9013V11.9038V11.9062V11.9086V11.911V11.9134V11.9157V11.9179V11.9202V11.9224V11.9246V11.9267V11.9288V11.9309V11.9329V11.9349V11.9369V11.9388V11.9407V11.9426V11.9444V11.9462V11.948V11.9497V11.9514V11.9531V11.9547V11.9563V11.9578V11.9593V11.9608C12.0924 12.258 11.8577 12.4967 11.5709 12.4967C11.2841 12.4967 11.0494 12.258 11.0494 11.9608V11.9591V11.9574V11.9555V11.9535V11.9514V11.9491V11.9468V11.9443V11.9418V11.9391V11.9363V11.9334V11.9304V11.9272V11.924V11.9207V11.9172V11.9136V11.91V11.9062V11.9023V11.8983V11.8942V11.89V11.8857V11.8813V11.8768V11.8721V11.8674V11.8626V11.8576V11.8526V11.8475V11.8422V11.8369V11.8315V11.8259V11.8203V11.8145V11.8087V11.8028V11.7967V11.7906V11.7844V11.7781V11.7716V11.7651V11.7585V11.7518V11.745V11.7381V11.7312V11.7241V11.7169V11.7097V11.7023V11.6949V11.6873V11.6797V11.672V11.6642V11.6563V11.6483V11.6403V11.6321V11.6239V11.6156V11.6072V11.5987V11.5901V11.5814V11.5727V11.5638V11.5549V11.5459V11.5369V11.5277V11.5185V11.5091V11.4997V11.4902V11.4807V11.471V11.4613V11.4515V11.4417V11.4317V11.4217V11.4116V11.4014V11.3911V11.3808V11.3704V11.3599V11.3494V11.3388V11.3281V11.3173V11.3064V11.2955V11.2846V11.2735V11.2624V11.2512V11.2399V11.2286V11.2172V11.2057V11.1942V11.1826V11.1709V11.1592V11.1474V11.1356V11.1236V11.1116V11.0996V11.0875V11.0753V11.0631V11.0508V11.0384V11.026V11.0135V11.001V10.9884V10.9757V10.963V10.9502V10.9374V10.9245V10.9115V10.8985V10.8855V10.8724V10.8592V10.846V10.8327V10.8194V10.806V10.7925V10.779V10.7655V10.7519V10.7383V10.7246V10.7108V10.6971V10.6832V10.6693V10.6554V10.6414V10.6274V10.6133V10.5992V10.585V10.5708V10.5565V10.5422V10.5279V10.5135V10.4991V10.4846V10.4701V10.4555V10.4409V10.4263V10.4116V10.3969V10.3821V10.3673V10.3525V10.3376V10.3227V10.3078V10.2928V10.2778V10.2627V10.2476V10.2325V10.2173V10.2021V10.1869V10.1717V10.1564V10.141V10.1257V10.1103V10.0949V10.0794V10.064V10.0485V10.0329V10.0174V10.0018V9.98615V9.9705V9.95483V9.93913V9.92341V9.90766V9.89189V9.87609V9.86027V9.84443V9.82856V9.81267V9.79676V9.78083V9.76488V9.74891V9.73291V9.7169V9.70087V9.68481V9.66875V9.65266V9.63655V9.62043V9.60429V9.58814V9.57197V9.55579V9.53959V9.52338V9.50715V9.49091V9.47466V9.45839V9.44211V9.42583V9.40953V9.39322V9.3769V9.36057V9.34423V9.32788V9.31153V9.29516V9.27879V9.26242V9.24603V9.22964V9.21325V9.19685V9.18044V9.16403V9.14762V9.13121V9.11479V9.09837V9.08194V9.06552V9.0491V9.03267V9.01625V8.99982V8.9834V8.96698V8.95055V8.93414V8.91772V8.90131V8.8849V8.8685V8.8521V8.8357V8.81931V8.80293V8.78655V8.77018V8.75382V8.73746V8.72111V8.70478V8.68845V8.67213V8.65582V8.63952V8.62323V8.60695V8.59069V8.57443V8.55819V8.54197V8.52575V8.50955V8.49337V8.4772V8.46105V8.44491V8.42879V8.41268V8.3966V8.38053V8.36448V8.34844V8.33243V8.31644V8.30046V8.28451V8.26858V8.25267V8.23678V8.22091V8.20507V8.18925V8.17345V8.15768V8.14193V8.12621V8.11051V8.09484V8.07919V8.06357V8.04798V8.03242V8.01689V8.00138V7.9859V7.97046V7.95504V7.93965V7.9243V7.90897V7.89368V7.87842V7.8632V7.848V7.83284V7.81772V7.80263V7.78757V7.77255V7.75757V7.74262V7.72771V7.71283V7.698V7.6832V7.66844V7.65372V7.63904V7.6244V7.60981V7.59525V7.58073V7.56626V7.55183V7.53744V7.52309V7.50879V7.49453V7.48032V7.46615V7.45203V7.43795V7.42392V7.40994V7.396V7.38212V7.36828V7.35449V7.34075V7.32705V7.31341V7.29982V7.28628V7.2728V7.25936V7.24598V7.23265V7.21937V7.20615V7.19298V7.17986V7.1668V7.1538V7.14085V7.12796V7.11513V7.10235V7.08963V7.07697V7.06437V7.05183V7.03934V7.02692V7.01456V7.00226V6.99002V6.97784V6.96573V6.95368V6.94169V6.92977V6.91791V6.90611V6.89438V6.88272V6.87112V6.85959V6.84812V6.83673V6.8254V6.81414V6.80294V6.79182V6.78077V6.76979V6.75887V6.74803V6.73726V6.72657V6.71594V6.70539V6.69491V6.68451V6.67418V6.66392V6.65374V6.64364V6.63361V6.62366V6.61378V6.60399V6.59427V6.58463V6.57507V6.56558V6.55618V6.54686V6.53762V6.52846V6.51938V6.51038V6.50147V6.49264V6.48389V6.47523V6.46665V6.45815V6.44974V6.44142V6.43318V6.42503V6.41697V6.40899V6.4011V6.39331V6.38559V6.37797V6.37044V6.363V6.35565V6.34839V6.34122V6.33415V6.32717V6.32028V6.31348V6.30678V6.30017V6.29366V6.28724V6.28092V6.27469V6.26856V6.26253V6.2566V6.25076V6.24502V6.23938V6.23384V6.2284V6.22306V6.21783V6.21269V6.20765V6.20272V6.19789V6.19316V6.18854V6.18402V6.1796V6.17529V6.17108V6.16699V6.16299V6.1591V6.15532V6.15165V6.14809V6.14463V6.14129V6.13805V6.13492V6.13191V6.129V6.12621V6.12352V6.12095V6.11849V6.11615V6.11392V6.1118V6.1098V6.10791V6.10614V6.10448V6.10294V6.10152C11.0494 5.752 10.7719 5.46558 10.428 5.46558C10.0841 5.46558 9.80647 5.752 9.80647 6.10152V14.5769C9.80647 14.7943 9.6787 14.9895 9.48413 15.0722C9.28979 15.1547 9.0659 15.1093 8.91668 14.9563L7.64091 13.6482C7.28609 13.2844 6.71202 13.2845 6.35725 13.6482C6.00311 14.0113 6.00315 14.5977 6.35725 14.9608L9.65327 18.3402L9.65329 18.3402C9.69961 18.3876 9.73684 18.4437 9.76301 18.5054L9.80904 18.4859L9.76301 18.5054L10.7565 20.8476L10.7695 20.8781L10.8026 20.878L16.8715 20.8779Z" fill="#04949D" stroke="white" stroke-width="0.1"/>
</svg>
