<svg width="12" height="12" viewBox="0 0 12 12" fill="none" xmlns="http://www.w3.org/2000/svg">
<path d="M9.11506 2.1518L9.07988 2.11662C9.30203 1.89446 9.66131 1.89446 9.88347 2.11661L9.11506 2.1518ZM9.11506 2.1518L9.07988 2.11662L2.1167 9.07989C1.89444 9.30205 1.89443 9.66132 2.11667 9.88348L9.11506 2.1518Z" fill="#D50001" stroke="#D50001" stroke-width="0.1"/>
<path d="M2.92028 2.11661L2.92029 2.11662L9.88347 9.07989C9.88347 9.0799 9.88347 9.0799 9.88348 9.0799C10.1057 9.30206 10.1057 9.66135 9.88347 9.88351L9.84812 9.84815M2.92028 2.11661L2.11669 2.11662C1.89444 2.33877 1.89444 2.69806 2.11669 2.92022C2.11669 2.92022 2.11669 2.92022 2.1167 2.92022L9.07988 9.8835C9.19069 9.99431 9.33625 10.05 9.48168 10.05C9.627 10.05 9.77264 9.99486 9.88356 9.88342L9.84812 9.84815M2.92028 2.11661C2.69804 1.89447 2.33886 1.89446 2.1167 2.11661H2.92028ZM9.84812 9.84815C9.74704 9.9497 9.61436 10 9.48168 10C9.349 10 9.21631 9.94922 9.11523 9.84815L2.15204 2.88486L2.88493 2.15197L9.84812 9.11526C10.0508 9.31789 10.0508 9.64551 9.84812 9.84815Z" fill="#D50001" stroke="#D50001" stroke-width="0.1"/>
</svg>
