<svg width="250" height="155" viewBox="0 0 250 155" fill="none" xmlns="http://www.w3.org/2000/svg">
<path d="M194.788 96.8269C195.902 117.312 155.763 158.967 106.288 143.55C83.2773 136.378 85.2264 124.475 67.7296 108.788C57.3005 99.4387 42.3156 92.3689 38.148 78.7784C34.5477 67.0479 36.7555 54.4396 42.9973 46.2385C57.0354 27.7946 85.3754 15.1652 113.299 44.2247C141.223 73.2841 191.908 43.993 194.788 96.8269Z" fill="url(#paint0_linear_976_9710)"/>
<path d="M177.37 44.353C173.692 50.903 165.636 51.8031 152.73 50.5581C143.023 49.6202 134.172 48.8946 124.465 43.6138C117.671 39.9204 112.293 34.9234 108.368 30.0697C104.114 24.8121 98.1767 18.8114 101.087 12.8497C105.087 4.66073 128.218 -2.23679 150.678 9.04222C175.351 21.4361 180.968 37.9509 177.37 44.353Z" fill="url(#paint1_linear_976_9710)"/>
<path fill-rule="evenodd" clip-rule="evenodd" d="M88.2748 126.21C87.0505 126.866 85.6664 127.165 84.28 127.074C82.8936 126.983 81.5607 126.505 80.4332 125.695C79.3057 124.885 78.4288 123.775 77.9025 122.492C77.3763 121.209 77.2217 119.804 77.4565 118.438L82.8225 87.4547L60.0977 65.5018C59.1133 64.5356 58.4187 63.3144 58.092 61.9757C57.7654 60.6369 57.8197 59.2338 58.2488 57.9242C58.6779 56.6146 59.4649 55.4504 60.521 54.5628C61.5772 53.6752 62.8607 53.0993 64.227 52.9L95.6436 48.3787L109.677 20.1653C110.298 18.9262 111.253 17.8843 112.434 17.1561C113.616 16.4279 114.977 16.0422 116.365 16.0422C117.754 16.0422 119.115 16.4279 120.297 17.1561C121.478 17.8843 122.433 18.9262 123.054 20.1653L137.087 48.3787L168.504 52.9C169.87 53.099 171.154 53.6747 172.211 54.5623C173.267 55.4499 174.054 56.614 174.483 57.9238C174.912 59.2335 174.967 60.6368 174.64 61.9756C174.313 63.3144 173.618 64.5357 172.634 65.5018L149.896 87.4426L155.262 118.426C155.499 119.793 155.346 121.199 154.821 122.484C154.296 123.768 153.419 124.88 152.291 125.691C151.163 126.503 149.83 126.982 148.442 127.074C147.055 127.165 145.669 126.866 144.444 126.21L116.353 111.597L88.2748 126.21ZM15.0386 126.664C14.4329 126.988 13.7481 127.136 13.0622 127.091C12.3762 127.046 11.7167 126.81 11.1588 126.409C10.6009 126.008 10.167 125.459 9.90661 124.825C9.64621 124.19 9.56975 123.495 9.68593 122.819L12.3408 107.49L1.09697 96.6291C0.609743 96.1511 0.265929 95.5469 0.104237 94.8845C-0.0574554 94.222 -0.0306011 93.5278 0.181774 92.8797C0.39415 92.2317 0.783613 91.6557 1.30631 91.2166C1.82901 90.7775 2.46419 90.4927 3.14032 90.3943L18.6847 88.1574L25.6279 74.1991C25.9355 73.5861 26.408 73.0707 26.9925 72.7105C27.577 72.3503 28.2505 72.1595 28.9375 72.1595C29.6245 72.1595 30.2979 72.3503 30.8824 72.7105C31.4669 73.0707 31.9394 73.5861 32.247 74.1991L39.1902 88.1574L54.735 90.3943C55.4111 90.4928 56.0462 90.7776 56.5689 91.2167C57.0915 91.6559 57.4809 92.2319 57.6933 92.8799C57.9056 93.5279 57.9324 94.2222 57.7707 94.8846C57.609 95.5469 57.2652 96.1511 56.778 96.6291L45.5281 107.484L48.1829 122.813C48.3005 123.489 48.225 124.185 47.9652 124.821C47.7054 125.457 47.2716 126.007 46.7135 126.408C46.1553 126.81 45.4952 127.047 44.8086 127.092C44.1219 127.137 43.4364 126.989 42.8302 126.664L28.9316 119.434L15.0386 126.664ZM189.869 126.664C189.264 126.988 188.579 127.136 187.893 127.091C187.207 127.046 186.547 126.81 185.989 126.409C185.431 126.008 184.998 125.459 184.737 124.825C184.477 124.19 184.4 123.495 184.517 122.819L187.172 107.49L175.928 96.6291C175.44 96.1511 175.097 95.5469 174.935 94.8845C174.773 94.222 174.8 93.5278 175.012 92.8797C175.225 92.2317 175.614 91.6557 176.137 91.2166C176.66 90.7775 177.295 90.4927 177.971 90.3943L193.515 88.1574L200.459 74.1991C200.766 73.5861 201.239 73.0707 201.823 72.7105C202.408 72.3503 203.081 72.1595 203.768 72.1595C204.455 72.1595 205.129 72.3503 205.713 72.7105C206.298 73.0707 206.77 73.5861 207.078 74.1991L214.021 88.1574L229.566 90.3943C230.242 90.4928 230.877 90.7777 231.399 91.2168C231.922 91.656 232.311 92.2319 232.524 92.8799C232.736 93.5278 232.763 94.2221 232.601 94.8845C232.44 95.5468 232.096 96.1511 231.609 96.6291L220.359 107.484L223.014 122.813C223.131 123.489 223.056 124.185 222.796 124.821C222.536 125.456 222.102 126.006 221.544 126.408C220.986 126.809 220.326 127.046 219.639 127.091C218.953 127.137 218.267 126.988 217.661 126.664L203.762 119.434L189.869 126.664Z" fill="url(#paint2_linear_976_9710)"/>
<path fill-rule="evenodd" clip-rule="evenodd" d="M128.067 68.0987C128.845 68.8752 128.845 70.1342 128.067 70.9106L115.19 83.7592C114.412 84.5354 113.151 84.5357 112.372 83.7597L104.639 76.0494C103.86 75.2732 103.86 74.0143 104.638 73.2375C105.416 72.4607 106.677 72.4602 107.456 73.2364L113.78 79.5418L125.249 68.0987C126.027 67.3222 127.289 67.3222 128.067 68.0987Z" fill="white"/>
<path d="M212.946 67.8426C205.559 69.5887 197.747 63.3381 197.747 63.3381C197.747 63.3381 201.916 54.2603 209.305 52.5195C216.691 50.7734 224.502 57.0186 224.502 57.0186C224.502 57.0186 220.332 66.0965 212.946 67.8426Z" fill="url(#paint3_linear_976_9710)"/>
<path d="M238.955 120.2C243.325 123.203 250 121.104 250 121.104C250 121.104 249.587 114.137 245.214 111.137C240.845 108.134 234.173 110.23 234.173 110.23C234.173 110.23 234.586 117.197 238.955 120.2Z" fill="url(#paint4_linear_976_9710)"/>
<path d="M59.2254 142.521C62.5967 145.944 68.9012 145.223 68.9012 145.223C68.9012 145.223 69.7352 138.95 66.361 135.528C62.9897 132.104 56.6884 132.824 56.6884 132.824C56.6884 132.824 55.8541 139.097 59.2254 142.521Z" fill="url(#paint5_linear_976_9710)"/>
<path d="M220.146 91.1411C217.166 91.1411 214.751 93.4466 214.751 96.2904C214.751 99.1343 217.166 101.44 220.146 101.44C223.126 101.44 225.542 99.1343 225.542 96.2904C225.542 93.4466 223.126 91.1411 220.146 91.1411Z" fill="url(#paint6_linear_976_9710)"/>
<path d="M116.592 139.958C112.575 139.958 109.319 143.102 109.319 146.98C109.319 150.858 112.575 154.002 116.592 154.002C120.608 154.002 123.864 150.858 123.864 146.98C123.864 143.102 120.608 139.958 116.592 139.958Z" fill="url(#paint7_linear_976_9710)"/>
<path d="M34.2045 50.3727C31.2798 50.3727 28.9088 48.007 28.9088 45.0887C28.9088 42.1704 31.2798 39.8047 34.2045 39.8047C37.1293 39.8047 39.5002 42.1704 39.5002 45.0887C39.5002 48.007 37.1293 50.3727 34.2045 50.3727Z" fill="url(#paint8_linear_976_9710)"/>
<path d="M149.955 31.5905C147.235 31.5905 145.029 29.3898 145.029 26.675C145.029 23.9603 147.235 21.7595 149.955 21.7595C152.676 21.7595 154.882 23.9603 154.882 26.675C154.882 29.3898 152.676 31.5905 149.955 31.5905Z" fill="url(#paint9_linear_976_9710)"/>
<path d="M209.336 147.137C206.889 147.137 204.905 145.157 204.905 142.716C204.905 140.274 206.889 138.295 209.336 138.295C211.782 138.295 213.766 140.274 213.766 142.716C213.766 145.157 211.782 147.137 209.336 147.137Z" fill="#E1E4E5"/>
<path d="M13.616 125.35C12.035 125.35 10.7534 124.071 10.7534 122.493C10.7534 120.916 12.035 119.637 13.616 119.637C15.197 119.637 16.4786 120.916 16.4786 122.493C16.4786 124.071 15.197 125.35 13.616 125.35Z" fill="white"/>
<path d="M90.7163 153.363C89.4481 153.363 88.42 152.337 88.42 151.071C88.42 149.806 89.4481 148.78 90.7163 148.78C91.9845 148.78 93.0126 149.806 93.0126 151.071C93.0126 152.337 91.9845 153.363 90.7163 153.363Z" fill="#E1E4E5"/>
<path d="M186.082 31.6514C184.147 31.6514 182.578 30.0858 182.578 28.1545C182.578 26.2233 184.147 24.6577 186.082 24.6577C188.018 24.6577 189.587 26.2233 189.587 28.1545C189.587 30.0858 188.018 31.6514 186.082 31.6514Z" fill="#E1E4E5"/>
<path d="M36.3701 85.2226C36.6978 86.4428 35.9721 87.697 34.7492 88.0239C33.5263 88.3509 32.2694 87.6268 31.9417 86.4066C31.614 85.1864 32.3397 83.9322 33.5626 83.6053C34.7855 83.2783 36.0424 84.0024 36.3701 85.2226Z" fill="white"/>
<path d="M82.2256 35.763C80.5414 35.763 79.176 34.4007 79.176 32.7201C79.176 31.0396 80.5414 29.6772 82.2256 29.6772C83.9099 29.6772 85.2753 31.0396 85.2753 32.7201C85.2753 34.4007 83.9099 35.763 82.2256 35.763Z" fill="#E1E4E5"/>
<path d="M182.803 93.5758C181.508 93.5758 180.458 92.7374 180.458 91.7032C180.458 90.669 181.508 89.8306 182.803 89.8306C184.099 89.8306 185.149 90.669 185.149 91.7032C185.149 92.7374 184.099 93.5758 182.803 93.5758Z" fill="white"/>
<path d="M220.692 125.78C218.797 126.703 216.669 126.24 215.939 124.748C215.209 123.255 216.154 121.297 218.049 120.374C219.944 119.452 222.072 119.914 222.802 121.407C223.532 122.9 222.587 124.858 220.692 125.78Z" fill="white"/>
<path d="M139.542 4.28072C140.177 6.64384 138.771 9.07284 136.403 9.70604C134.034 10.3392 131.6 8.93685 130.965 6.57373C130.331 4.21061 131.736 1.78161 134.105 1.14842C136.473 0.515222 138.907 1.9176 139.542 4.28072Z" fill="#E1E4E5"/>
<path d="M237.647 69.53H237.709C238.072 74.6675 241.901 74.7465 241.901 74.7465C241.901 74.7465 237.679 74.8287 237.679 80.7651C237.679 74.8287 233.456 74.7465 233.456 74.7465C233.456 74.7465 237.284 74.6675 237.647 69.53ZM62.2798 5.21558H62.3855C63.0113 14.2063 69.606 14.3446 69.606 14.3446C69.606 14.3446 62.3339 14.4886 62.3339 24.8769C62.3339 14.4886 55.0618 14.3446 55.0618 14.3446C55.0618 14.3446 61.6539 14.2063 62.2798 5.21558Z" fill="#E1E4E5"/>
<defs>
<linearGradient id="paint0_linear_976_9710" x1="146.812" y1="219.621" x2="72.0454" y2="-118.451" gradientUnits="userSpaceOnUse">
<stop stop-color="white"/>
<stop offset="1" stop-color="#EEEEEE"/>
</linearGradient>
<linearGradient id="paint1_linear_976_9710" x1="152.59" y1="86.8036" x2="119.943" y2="-60.2248" gradientUnits="userSpaceOnUse">
<stop stop-color="white"/>
<stop offset="1" stop-color="#EEEEEE"/>
</linearGradient>
<linearGradient id="paint2_linear_976_9710" x1="0" y1="79.669" x2="232.705" y2="79.669" gradientUnits="userSpaceOnUse">
<stop offset="0.28125" stop-color="#04949D"/>
<stop offset="1" stop-color="#0057D3"/>
</linearGradient>
<linearGradient id="paint3_linear_976_9710" x1="185.13" y1="72.1837" x2="249.74" y2="41.5926" gradientUnits="userSpaceOnUse">
<stop stop-color="white"/>
<stop offset="1" stop-color="#EEEEEE"/>
</linearGradient>
<linearGradient id="paint4_linear_976_9710" x1="255.976" y1="130.053" x2="221.661" y2="93.7892" gradientUnits="userSpaceOnUse">
<stop stop-color="white"/>
<stop offset="1" stop-color="#EEEEEE"/>
</linearGradient>
<linearGradient id="paint5_linear_976_9710" x1="72.6763" y1="154.215" x2="48.3802" y2="116.045" gradientUnits="userSpaceOnUse">
<stop stop-color="white"/>
<stop offset="1" stop-color="#EEEEEE"/>
</linearGradient>
<linearGradient id="paint6_linear_976_9710" x1="225.542" y1="95.5395" x2="214.751" y2="95.5395" gradientUnits="userSpaceOnUse">
<stop offset="0.28125" stop-color="#04949D"/>
<stop offset="1" stop-color="#0057D3"/>
</linearGradient>
<linearGradient id="paint7_linear_976_9710" x1="123.864" y1="145.956" x2="109.319" y2="145.956" gradientUnits="userSpaceOnUse">
<stop offset="0.28125" stop-color="#04949D"/>
<stop offset="1" stop-color="#0057D3"/>
</linearGradient>
<linearGradient id="paint8_linear_976_9710" x1="39.5002" y1="45.8593" x2="28.9088" y2="45.8593" gradientUnits="userSpaceOnUse">
<stop offset="0.28125" stop-color="#04949D"/>
<stop offset="1" stop-color="#0057D3"/>
</linearGradient>
<linearGradient id="paint9_linear_976_9710" x1="154.882" y1="27.3919" x2="145.029" y2="27.3919" gradientUnits="userSpaceOnUse">
<stop offset="0.28125" stop-color="#04949D"/>
<stop offset="1" stop-color="#0057D3"/>
</linearGradient>
</defs>
</svg>
