<svg width="24" height="24" viewBox="0 0 24 24" fill="none" xmlns="http://www.w3.org/2000/svg">
<path d="M12.6427 20.1662C12.6426 19.9888 12.5736 19.819 12.4514 19.6942C12.3293 19.5695 12.1639 19.4998 11.9921 19.4998H8.23977C7.97438 19.5036 7.72323 19.3812 7.55951 19.1697L7.55948 19.1697L4.59467 15.3365C4.49427 15.207 4.43232 15.0511 4.4157 14.8874L4.41569 14.8873C4.39934 14.7241 4.42861 14.5597 4.50031 14.4128C4.58464 14.22 4.73537 14.0646 4.92462 13.9768C5.11459 13.8886 5.32987 13.8746 5.52953 13.9378L5.53209 13.9386L5.53208 13.9386L7.2809 14.5442L7.28109 14.5443C7.47783 14.6129 7.6948 14.581 7.86502 14.4582C8.03561 14.334 8.13796 14.1332 8.13905 13.9178V7.13286C8.13905 6.82418 8.30025 6.53798 8.56356 6.38274C8.82712 6.22736 9.15219 6.22736 9.41574 6.38274C9.67905 6.53798 9.84026 6.82419 9.84026 7.13286V9.70119V9.70189C9.83705 10.1601 9.97375 10.6076 10.2311 10.9823L12.6427 20.1662ZM12.6427 20.1662L12.6426 20.1662C12.6426 20.3436 12.5736 20.5135 12.4514 20.6384C12.3292 20.7631 12.1639 20.8328 11.992 20.8328L8.23918 20.8328M12.6427 20.1662L8.23918 20.8328M16.9521 14.2493L16.9522 14.2485C17.0263 13.7387 16.9229 13.2187 16.6605 12.7793L16.6605 12.7793C16.3981 12.3397 15.9933 12.0085 15.5171 11.8428L11.7193 10.5241C11.7192 10.5241 11.7192 10.5241 11.7191 10.5241C11.5429 10.4634 11.3912 10.3459 11.2871 10.1894C11.1834 10.0337 11.1324 9.84798 11.1415 9.66041V7.13288C11.1415 6.3458 10.7303 5.61961 10.0648 5.22722L10.0648 5.22721C9.39946 4.83482 8.57985 4.83482 7.91455 5.22721L7.91454 5.22722C7.24898 5.61961 6.83784 6.3458 6.83784 7.13288V12.8522V12.9928L6.70504 12.9467L5.95443 12.6861L5.95396 12.6859C5.36373 12.4776 4.714 12.5416 4.17339 12.8616C3.63285 13.1817 3.25438 13.7266 3.13774 14.3552C3.0211 14.9838 3.17778 15.6329 3.56674 16.1336L3.56687 16.1337L6.53175 19.9671L6.53278 19.9684L6.53277 19.9684C6.93925 20.5125 7.57023 20.8317 8.23901 20.8328C8.23906 20.8328 8.23912 20.8328 8.23918 20.8328M16.9521 14.2493L8.23901 20.9328L8.23918 20.8328M16.9521 14.2493C16.9193 14.4888 16.7641 14.6909 16.5467 14.7807C16.3295 14.8705 16.0818 14.8352 15.8966 14.6877C15.7113 14.54 15.6164 14.3017 15.6489 14.0625C15.6791 13.8613 15.6389 13.6557 15.5349 13.4816M16.9521 14.2493L15.5349 13.4816M11.2748 11.7919C11.2751 11.792 11.2753 11.7921 11.2755 11.7921L15.0796 13.1104L11.2748 11.7919ZM11.2748 11.7919C10.8534 11.6396 10.4884 11.3566 10.2312 10.9823L11.2748 11.7919ZM15.5349 13.4816C15.431 13.3073 15.2699 13.1758 15.0799 13.1105L15.5349 13.4816Z" fill="#04949D" stroke="white" stroke-width="0.2"/>
<path d="M11.3415 16.3332C11.3415 15.7489 11.5687 15.1892 11.9724 14.7767C12.3762 14.3644 12.9232 14.1332 13.4933 14.1332C14.0634 14.1332 14.6104 14.3644 15.0142 14.7767C15.4179 15.1892 15.6451 15.7489 15.6451 16.3332C15.6451 16.9174 15.4179 17.4771 15.0142 17.8896C14.6104 18.3019 14.0634 18.5332 13.4933 18.5332C12.9232 18.5332 12.3762 18.3019 11.9724 17.8896C11.5687 17.4771 11.3415 16.9174 11.3415 16.3332ZM12.8911 16.9453C13.0504 17.108 13.2671 17.1998 13.4933 17.1998C13.7195 17.1998 13.9362 17.108 14.0955 16.9453C14.2548 16.7826 14.3439 16.5623 14.3439 16.3332C14.3439 16.104 14.2548 15.8837 14.0955 15.7211C13.9362 15.5583 13.7195 15.4665 13.4933 15.4665C13.2671 15.4665 13.0504 15.5583 12.8911 15.7211C12.7318 15.8837 12.6427 16.104 12.6427 16.3332C12.6427 16.5623 12.7318 16.7826 12.8911 16.9453Z" fill="#04949D" stroke="white" stroke-width="0.2"/>
<path d="M19.4238 14.0423L19.434 14.1418C19.2642 14.1592 19.1073 14.2444 18.9979 14.3795C18.9978 14.3796 18.9978 14.3797 18.9977 14.3797L12.2429 22.8123C12.2429 22.8123 12.2428 22.8124 12.2428 22.8125C12.1348 22.9489 12.0835 23.1237 12.1005 23.2991C12.1178 23.4745 12.202 23.6355 12.3343 23.7471L12.3361 23.7486L12.3361 23.7486C12.4486 23.8483 12.5929 23.902 12.7411 23.8998L12.7419 23.8998C12.9357 23.8984 13.1193 23.8087 13.2423 23.6538L13.2426 23.6535L19.9977 15.2206C19.9977 15.2205 19.9978 15.2205 19.9978 15.2204C20.1058 15.084 20.1571 14.9092 20.1401 14.7337L19.4238 14.0423ZM19.4238 14.0423C19.2271 14.0625 19.046 14.1611 18.92 14.3168L20.14 14.7336C20.1228 14.5586 20.0388 14.3979 19.9069 14.2863C19.7738 14.1763 19.6038 14.1245 19.4339 14.1418L19.4238 14.0423Z" fill="#04949D" stroke="white" stroke-width="0.2"/>
<path d="M16.5964 21.6997C16.5964 21.1154 16.8236 20.5557 17.2273 20.1432C17.6311 19.7309 18.1781 19.4997 18.7482 19.4997C19.3183 19.4997 19.8653 19.7309 20.2691 20.1432C20.6728 20.5557 20.9 21.1154 20.9 21.6997C20.9 22.2839 20.6728 22.8436 20.2691 23.2561C19.8652 23.6684 19.3183 23.8997 18.7482 23.8997C18.1781 23.8997 17.6311 23.6684 17.2273 23.2561C16.8236 22.8436 16.5964 22.2839 16.5964 21.6997ZM18.1459 22.3118C18.3053 22.4745 18.5219 22.5663 18.7482 22.5663C18.9744 22.5663 19.1911 22.4745 19.3504 22.3118C19.5097 22.1491 19.5988 21.9288 19.5988 21.6997C19.5988 21.4705 19.5097 21.2502 19.3504 21.0876C19.1911 20.9248 18.9744 20.833 18.7482 20.833C18.5219 20.833 18.3053 20.9248 18.1459 21.0876C17.9867 21.2502 17.8976 21.4705 17.8976 21.6997C17.8976 21.9288 17.9867 22.1491 18.1459 22.3118Z" fill="#04949D" stroke="white" stroke-width="0.2"/>
<path d="M8.23945 2.19602C8.23744 2.4007 8.31568 2.59767 8.45659 2.74312L9.00994 2.97012C9.20178 2.96493 9.3848 2.88481 9.52084 2.74569C9.66157 2.60195 9.74066 2.40702 9.74066 2.20373V1.76666C9.74066 1.49268 9.59758 1.23958 9.36536 1.10268C9.13314 0.965774 8.84697 0.965774 8.61475 1.10268C8.38253 1.23958 8.23945 1.49268 8.23945 1.76666V2.19602Z" fill="#04949D" stroke="white" stroke-width="0.2"/>
<path d="M11.3379 3.86692L11.3324 3.86694C11.1618 3.86652 10.9977 3.79727 10.8759 3.67348C10.7529 3.54848 10.6833 3.37784 10.6834 3.19966C10.6836 3.02146 10.7534 2.85101 10.8767 2.7262L10.8767 2.7262L10.8771 2.72586L11.1672 2.42946C11.3334 2.28326 11.5601 2.23284 11.7702 2.29474L11.7703 2.29475C11.9814 2.35682 12.1487 2.52447 12.2131 2.74136C12.2772 2.95737 12.2303 3.19131 12.0891 3.36388L11.7992 3.66768C11.7992 3.66771 11.7991 3.66774 11.7991 3.66777C11.6772 3.79473 11.5112 3.86618 11.3379 3.86692Z" fill="#04949D" stroke="white" stroke-width="0.2"/>
<path d="M6.64937 3.85484L6.64946 3.85484C6.82202 3.85247 6.98705 3.77994 7.10823 3.65277C7.22938 3.52562 7.29641 3.354 7.29393 3.1757C7.29144 2.99756 7.21986 2.82804 7.09564 2.70438L6.79824 2.41587C6.62903 2.273 6.40122 2.22733 6.19205 2.29368L6.64937 3.85484ZM6.64937 3.85484C6.47694 3.85735 6.31014 3.78985 6.1858 3.66667M6.64937 3.85484L6.1858 3.66667M6.1858 3.66667L5.89572 3.37038C5.75068 3.20109 5.69859 2.9679 5.75812 2.75018C5.81801 2.53182 5.98192 2.3604 6.19204 2.29369L6.1858 3.66667Z" fill="#04949D" stroke="white" stroke-width="0.2"/>
</svg>
