<svg width="24" height="24" viewBox="0 0 24 24" fill="none" xmlns="http://www.w3.org/2000/svg">
<path d="M6.388 6.71489C6.01762 6.7812 5.74887 7.09551 5.74887 7.46218V7.54226H5.08553C4.5252 7.54226 4.06927 7.98765 4.06927 8.53503V9.83339C4.06927 9.91206 4.10046 10.0155 4.16495 10.0901L6.32349 12.5879C6.46818 12.7557 6.72483 12.7764 6.89632 12.6353C7.06781 12.4937 7.08965 12.2432 6.94475 12.0757L5.3507 10.2311H18.6795L13.1435 16.2292C12.9408 16.4448 12.8293 16.7293 12.8293 17.0296V20.1598L10.8333 19.2573V17.0137C10.8333 16.7283 10.7305 16.4543 10.5461 16.2449L10.5014 16.1933C10.3563 16.026 10.1001 16.0051 9.9284 16.1466C9.75711 16.2883 9.73567 16.5389 9.88057 16.7064L9.92761 16.7605C9.98735 16.8284 10.0203 16.9183 10.0203 17.0137V19.2573C10.0203 19.5781 10.2134 19.8701 10.51 20L12.7616 21.0044C12.845 21.0416 12.9337 21.0602 13.022 21.0602C13.1393 21.0602 13.2558 21.0277 13.3582 20.9635C13.5361 20.8518 13.6423 20.6623 13.6423 20.4566V17.0296C13.6423 16.9284 13.6778 16.8349 13.7449 16.7634L19.8952 10.0998C19.9615 10.028 20 9.91398 20 9.83339V8.53503C20 7.98765 19.5441 7.54226 18.9838 7.54226H17.9139V7.46218C17.9139 7.09551 17.6452 6.7812 17.2702 6.71411L16.4044 6.56869C16.3159 6.28482 16.2 6.01142 16.0585 5.75159L16.5628 5.05258C16.7827 4.75048 16.7478 4.34077 16.4795 4.07881L15.7861 3.40151C15.519 3.13975 15.0994 3.10349 14.7875 3.31697L14.0712 3.812C13.8066 3.67394 13.5276 3.56109 13.2366 3.47442L13.0863 2.63037C13.0236 2.26506 12.7024 2 12.3225 2H11.3402C10.9601 2 10.639 2.26526 10.5771 2.62804L10.4264 3.47442C10.1354 3.5609 9.85615 3.67394 9.59157 3.812L8.87404 3.3162C8.56381 3.10329 8.1446 3.13955 7.87684 3.40132L7.18333 4.07881C6.91498 4.34077 6.88004 4.75048 7.09897 5.05122L7.60432 5.75159C7.4626 6.01142 7.34688 6.28482 7.25836 6.56869L6.388 6.71489ZM19.187 8.53503V9.43628H4.88228V8.53503C4.88228 8.42548 4.97338 8.33648 5.08553 8.33648H18.9838C19.0959 8.33648 19.187 8.42548 19.187 8.53503ZM9.91103 7.54226C10.0989 6.67596 10.8868 6.02344 11.8287 6.02344C12.7732 6.02344 13.5632 6.67596 13.7516 7.54226H9.91103ZM7.65077 7.30861C7.81035 7.28185 7.93837 7.16512 7.97688 7.01155C8.07235 6.62879 8.22558 6.26698 8.43241 5.9356C8.51657 5.80045 8.51081 5.62943 8.41752 5.5001L7.78117 4.61805L8.43122 3.98302L9.33354 4.60661C9.46613 4.69813 9.64198 4.70394 9.78092 4.62095C10.1168 4.41969 10.4863 4.26999 10.8792 4.17615C11.0362 4.13872 11.1554 4.01405 11.1832 3.85854L11.3728 2.79422H12.2902L12.4797 3.85854C12.5075 4.01405 12.6268 4.13872 12.7838 4.17615C13.1766 4.26999 13.546 4.41969 13.8819 4.62095C14.0202 4.70394 14.1963 4.69851 14.3292 4.60661L15.2316 3.98302L15.8816 4.61805L15.2453 5.5001C15.152 5.62943 15.1462 5.80045 15.2304 5.9356C15.437 6.26678 15.5904 6.62879 15.6863 7.01155C15.7246 7.16532 15.8526 7.28185 16.0122 7.30861L17.1009 7.49146V7.54226H14.575C14.377 6.23595 13.2227 5.22922 11.8287 5.22922C10.4374 5.22922 9.28538 6.23595 9.08769 7.54226H6.56187V7.49146L7.65077 7.30861Z" fill="#04949D"/>
<path d="M3.67069 15.4332C3.30091 15.4332 3 15.7272 3 16.0884C3 16.4499 3.30091 16.7438 3.67069 16.7438C4.04047 16.7438 4.34137 16.4499 4.34137 16.0884C4.34137 16.0592 4.33636 16.0313 4.33254 16.003L5.03838 15.3135C5.1307 15.3254 5.12512 15.3247 5.21216 15.3136L5.35244 15.4507C5.29604 15.8658 5.62811 16.1898 6.01144 16.1898C6.38281 16.1898 6.6849 15.897 6.6849 15.5374C6.6849 15.5075 6.67984 15.4789 6.67587 15.45L7.75874 14.3922C7.84707 14.4035 7.84171 14.4039 7.93289 14.3921L8.42335 14.8712C8.41953 14.8995 8.41452 14.9274 8.41452 14.9566C8.41452 15.3181 8.71542 15.612 9.0854 15.612C9.45518 15.612 9.75609 15.3181 9.75609 14.9566C9.75609 14.9279 9.75108 14.9005 9.7474 14.8728L11.5952 13.0677C11.691 13.0801 11.6831 13.0786 11.7673 13.0682L12.1041 13.3972C12.0427 13.8141 12.3783 14.1426 12.7685 14.1426C13.1365 14.1426 13.4358 13.8502 13.4358 13.4907C13.4358 13.4605 13.4308 13.4316 13.4268 13.4024L14.6209 12.2359C14.6507 12.2398 14.6802 12.2447 14.7111 12.2447C15.0791 12.2447 15.3784 11.9523 15.3784 11.5928C15.3784 11.2297 15.0791 10.9344 14.7111 10.9344C14.3393 10.9344 14.0368 11.2297 14.0368 11.5928C14.0368 11.621 14.0418 11.6478 14.0454 11.675L12.8523 12.8406C12.7617 12.8292 12.7746 12.8294 12.684 12.8406L12.3429 12.5074C12.3465 12.48 12.3515 12.4529 12.3515 12.4245C12.3515 12.0613 12.0522 11.766 11.6842 11.766C11.3124 11.766 11.0101 12.0613 11.0101 12.4245C11.0101 12.453 11.0152 12.4802 11.0188 12.5077L9.17373 14.3102C9.08128 14.2981 9.086 14.2988 8.99851 14.31L8.50738 13.8302C8.56296 13.4173 8.23193 13.0903 7.84546 13.0903C7.47568 13.0903 7.17477 13.3843 7.17477 13.7455C7.17477 13.7748 7.17978 13.8027 7.1836 13.8309L6.10138 14.8882C6.00689 14.8757 6.01126 14.8768 5.92589 14.8878L5.78779 14.7529C5.84389 14.3412 5.51479 14.0116 5.12599 14.0116C4.75621 14.0116 4.4553 14.3055 4.4553 14.6669C4.4553 14.6959 4.46032 14.7235 4.46406 14.7515L3.7574 15.4418C3.72872 15.4381 3.70038 15.4332 3.67069 15.4332Z" fill="#04949D"/>
</svg>
