<svg width="7" height="6" viewBox="0 0 7 6" fill="none" xmlns="http://www.w3.org/2000/svg">
<path d="M5.16353 0.913013C5.26849 0.808967 5.41019 0.75041 5.55798 0.750002C5.70577 0.749594 5.84779 0.807368 5.95332 0.910834C6.05886 1.0143 6.11943 1.15514 6.12195 1.30291C6.12447 1.45069 6.06873 1.59351 5.96678 1.70051L2.97278 5.44301C2.92132 5.49844 2.85922 5.54292 2.79018 5.57379C2.72114 5.60466 2.64658 5.6213 2.57097 5.6227C2.49535 5.6241 2.42023 5.61023 2.3501 5.58194C2.27996 5.55364 2.21625 5.51149 2.16278 5.45801L0.179031 3.47351C0.123766 3.42202 0.0794396 3.35992 0.0486956 3.29092C0.0179516 3.22192 0.00142013 3.14743 8.75399e-05 3.07191C-0.00124505 2.99638 0.0126486 2.92136 0.0409394 2.85132C0.0692301 2.78127 0.111339 2.71765 0.164753 2.66423C0.218167 2.61082 0.281792 2.56871 0.351833 2.54042C0.421874 2.51213 0.496896 2.49824 0.572423 2.49957C0.647951 2.5009 0.722436 2.51743 0.791435 2.54818C0.860435 2.57892 0.922535 2.62325 0.974031 2.67851L2.54453 4.24826L5.14928 0.929513C5.15393 0.923702 5.15819 0.918191 5.16353 0.913013Z" fill="#0057D3"/>
</svg>
