<svg width="24" height="24" viewBox="0 0 24 24" fill="none" xmlns="http://www.w3.org/2000/svg">
<path d="M22.884 10.1618L15.578 2.13986C15.4968 2.05065 15.3832 2 15.2643 2C15.1454 2 15.0319 2.05061 14.9506 2.13982L10.6754 6.8339C9.99619 6.62651 9.27741 6.51461 8.53354 6.51461C4.37953 6.51461 1 9.98797 1 14.2573C1 18.5266 4.37953 22 8.53354 22C9.88366 22 11.1518 21.6328 12.2488 20.9909H18.3955C18.6327 20.9909 18.8252 20.7931 18.8252 20.5492V18.7828C18.8252 18.5389 18.6327 18.3412 18.3955 18.3412C18.1582 18.3412 17.9658 18.5389 17.9658 18.7828V20.1076H13.4632C15.0573 18.6869 16.0671 16.591 16.0671 14.2573C16.0671 11.0906 14.2075 8.36229 11.5519 7.16401L15.2643 3.08788L21.5795 10.022H18.3955C18.1582 10.022 17.9658 10.2197 17.9658 10.4636V14.8083C17.9658 15.0522 18.1582 15.2499 18.3955 15.2499C18.6327 15.2499 18.8252 15.0522 18.8252 14.8083V10.9053H22.5703C22.7415 10.9053 22.8964 10.8008 22.9645 10.6394C23.0327 10.4779 23.001 10.2903 22.884 10.1618ZM15.2077 14.2573C15.2077 18.0396 12.2137 21.1168 8.53354 21.1168C4.85339 21.1168 1.85937 18.0396 1.85937 14.2573C1.85937 10.475 4.85339 7.39784 8.53354 7.39784C12.2137 7.39784 15.2077 10.475 15.2077 14.2573Z" fill="#04949D"/>
<path d="M18.3954 17.2372C18.6328 17.2372 18.8251 17.0395 18.8251 16.7956C18.8251 16.5517 18.6328 16.3539 18.3954 16.3539C18.1581 16.3539 17.9658 16.5517 17.9658 16.7956C17.9658 17.0395 18.1581 17.2372 18.3954 17.2372Z" fill="#04949D"/>
<path d="M2.72217 14.2573C2.72217 17.5507 5.32917 20.23 8.53356 20.23C11.738 20.23 14.345 17.5507 14.345 14.2573C14.345 10.9639 11.738 8.28455 8.53356 8.28455C5.32917 8.28455 2.72217 10.9639 2.72217 14.2573ZM13.4856 14.2573C13.4856 17.0636 11.2641 19.3468 8.53356 19.3468C5.80298 19.3468 3.58154 17.0636 3.58154 14.2573C3.58154 11.4509 5.80298 9.16778 8.53356 9.16778C11.2641 9.16778 13.4856 11.4509 13.4856 14.2573Z" fill="#04949D"/>
<path d="M7.47354 15.3367C6.96879 14.821 6.14753 14.821 5.64277 15.3367C5.39747 15.5873 5.26233 15.9208 5.26233 16.2757C5.26233 16.6305 5.39747 16.9639 5.64277 17.2146C5.89517 17.4726 6.22663 17.6015 6.55818 17.6015C6.88964 17.6015 7.22123 17.4725 7.47354 17.2147C7.71889 16.964 7.85399 16.6305 7.85399 16.2757C7.85399 15.9208 7.71885 15.5874 7.47354 15.3367ZM6.86764 16.5883C6.69701 16.7627 6.41935 16.7627 6.24868 16.5883C6.16686 16.5047 6.12175 16.3936 6.12175 16.2757C6.12175 16.1578 6.16686 16.0468 6.24872 15.9631C6.33401 15.8759 6.44612 15.8323 6.55818 15.8323C6.67024 15.8323 6.78235 15.8759 6.86764 15.9631V15.9632C6.9495 16.0468 6.99461 16.1578 6.99461 16.2758C6.99461 16.3936 6.9495 16.5046 6.86764 16.5883Z" fill="#04949D"/>
<path d="M10.509 13.5647C10.8405 13.5647 11.172 13.4357 11.4244 13.1778C11.6697 12.9272 11.8048 12.5937 11.8048 12.2389C11.8048 11.8841 11.6697 11.5507 11.4244 11.3C11.4244 11.3 11.4244 11.3 11.4244 11.3C10.9196 10.7842 10.0984 10.7842 9.59364 11.3C9.34829 11.5506 9.2132 11.8841 9.2132 12.2389C9.2132 12.5938 9.34833 12.9272 9.59364 13.1779C9.84595 13.4357 10.1775 13.5647 10.509 13.5647ZM10.1995 11.9263C10.2848 11.8391 10.3969 11.7955 10.509 11.7955C10.6211 11.7955 10.7332 11.8391 10.8185 11.9263C10.9003 12.0099 10.9454 12.121 10.9454 12.2389C10.9454 12.3568 10.9003 12.4679 10.8185 12.5515C10.6478 12.7259 10.3701 12.7258 10.1995 12.5515C10.1176 12.4678 10.0725 12.3568 10.0725 12.2389C10.0725 12.121 10.1176 12.0099 10.1995 11.9263Z" fill="#04949D"/>
<path d="M6.54114 11.599C6.37284 11.4271 6.10076 11.4278 5.93344 11.6009C5.76612 11.7738 5.76693 12.0534 5.9352 12.2254L10.5257 16.9158C10.6095 17.0014 10.7191 17.0442 10.8287 17.0442C10.939 17.0442 11.0494 17.0007 11.1334 16.9139C11.3007 16.7409 11.2999 16.4613 11.1316 16.2894L6.54114 11.599Z" fill="#04949D"/>
</svg>
