<svg width="20" height="14" viewBox="0 0 20 14" fill="none" xmlns="http://www.w3.org/2000/svg">
<g clip-path="url(#clip0_1008_9580)">
<mask id="mask0_1008_9580" style="mask-type:alpha" maskUnits="userSpaceOnUse" x="0" y="0" width="20" height="14">
<path d="M18.0952 0H1.90476C0.852791 0 0 0.835735 0 1.86667V12.1333C0 13.1643 0.852791 14 1.90476 14H18.0952C19.1472 14 20 13.1643 20 12.1333V1.86667C20 0.835735 19.1472 0 18.0952 0Z" fill="white"/>
</mask>
<g mask="url(#mask0_1008_9580)">
<path d="M18.0952 0H1.90476C0.852791 0 0 0.835735 0 1.86667V12.1333C0 13.1643 0.852791 14 1.90476 14H18.0952C19.1472 14 20 13.1643 20 12.1333V1.86667C20 0.835735 19.1472 0 18.0952 0Z" fill="white"/>
<path fill-rule="evenodd" clip-rule="evenodd" d="M12.3809 6.99996C12.3809 5.71196 11.3143 4.66663 9.99997 4.66663C8.68569 4.66663 7.61902 5.71196 7.61902 6.99996C7.61902 8.28796 8.68569 9.33329 9.99997 9.33329C11.3143 9.33329 12.3809 8.28796 12.3809 6.99996ZM9.99997 8.39996C10.7885 8.39996 11.4285 7.56463 11.4285 6.53329C11.4285 5.50196 10.7885 4.66663 9.99997 4.66663C9.2114 4.66663 8.5714 5.50196 8.5714 6.53329C8.5714 7.56463 9.2114 8.39996 9.99997 8.39996Z" fill="#406421"/>
<path d="M9.99999 7.46664C10.263 7.46664 10.4762 7.04877 10.4762 6.53331C10.4762 6.01784 10.263 5.59998 9.99999 5.59998C9.737 5.59998 9.5238 6.01784 9.5238 6.53331C9.5238 7.04877 9.737 7.46664 9.99999 7.46664Z" fill="#D5B852"/>
<path fill-rule="evenodd" clip-rule="evenodd" d="M0 0H6.66667V14H0V0Z" fill="#006946"/>
<path fill-rule="evenodd" clip-rule="evenodd" d="M13.3334 0H20V14H13.3334V0Z" fill="#D0091E"/>
<path d="M18.0952 0.466675H1.90477C1.11579 0.466675 0.476196 1.09348 0.476196 1.86667V12.1333C0.476196 12.9065 1.11579 13.5333 1.90477 13.5333H18.0952C18.8842 13.5333 19.5238 12.9065 19.5238 12.1333V1.86667C19.5238 1.09348 18.8842 0.466675 18.0952 0.466675Z" stroke="black" stroke-opacity="0.1"/>
</g>
</g>
<defs>
<clipPath id="clip0_1008_9580">
<rect width="20" height="14" fill="white"/>
</clipPath>
</defs>
</svg>
