<svg width="24" height="24" viewBox="0 0 24 24" fill="none" xmlns="http://www.w3.org/2000/svg">
<path d="M1.98521 10.6818L2.08438 10.6948L1.98521 10.6818ZM1.98521 10.6818C2.02025 10.413 2.26654 10.2239 2.53508 10.2588L2.53515 10.2588C2.80388 10.2938 2.99325 10.54 2.95822 10.8087L2.8592 10.7958L2.95822 10.8087C2.90715 11.2004 2.88125 11.6011 2.88125 11.9999C2.88125 17.0279 6.97195 21.1187 11.9999 21.1187C17.028 21.1187 21.1187 17.0279 21.1187 11.9999C21.1187 6.97195 17.028 2.88125 11.9999 2.88125C9.4928 2.88125 7.14942 3.88724 5.43568 5.67008H6.4366C6.70757 5.67008 6.92723 5.88973 6.92723 6.1607C6.92723 6.43167 6.70757 6.65133 6.4366 6.65133H4.36852C4.09754 6.65133 3.87789 6.43167 3.87789 6.1607V4.09238C3.87789 3.82141 4.09754 3.60176 4.36852 3.60176C4.63949 3.60176 4.85914 3.82141 4.85914 4.09238V4.85977C5.62968 4.0903 6.52385 3.44278 7.49404 2.95838L7.53871 3.04785L7.49404 2.95838C8.90071 2.25609 10.417 1.9 11.9999 1.9C14.6975 1.9 17.2342 2.95069 19.1417 4.85816C21.0493 6.76566 22.1 9.30231 22.1 11.9999C22.1 14.6975 21.0493 17.2341 19.1417 19.1417C17.2342 21.0493 14.6975 22.1 11.9999 22.1C9.30235 22.1 6.76566 21.0493 4.85819 19.1417C2.95069 17.2342 1.9 14.6975 1.9 11.9999C1.9 11.5589 1.92867 11.1155 1.98521 10.6818ZM13.4347 10.0471L13.4347 10.0471C13.2542 10.2492 12.9441 10.2667 12.742 10.0862C12.5479 9.91287 12.2849 9.81547 11.9998 9.81547C11.4218 9.81547 10.9788 10.2151 10.9788 10.6748C10.9788 11.1344 11.4218 11.5341 11.9999 11.5341C13.0955 11.5341 14.0022 12.3515 14.0022 13.3746C14.0022 14.2366 13.3574 14.9535 12.5002 15.157L12.5083 15.4952C12.5149 15.7661 12.3006 15.991 12.0297 15.9976L12.0177 15.9977C11.7522 15.9977 11.5338 15.7858 11.5274 15.5189L11.5189 15.1656C11.0236 15.0567 10.6978 14.7836 10.3985 14.5013C10.2014 14.3154 10.1923 14.0049 10.3782 13.8078C10.5641 13.6106 10.8747 13.6016 11.0718 13.7875C11.2478 13.9535 11.3818 14.0633 11.5198 14.1331C11.6547 14.2013 11.7993 14.2339 11.9999 14.2339C12.578 14.2339 13.021 13.8343 13.021 13.3746C13.021 12.9149 12.578 12.5153 11.9999 12.5153C10.9043 12.5153 9.99762 11.6979 9.99762 10.6748C9.99762 9.81234 10.643 9.09525 11.5007 8.89211L11.4915 8.50438C11.485 8.23354 11.6993 8.00871 11.9701 8.00218C11.9702 8.00218 11.9702 8.00218 11.9702 8.00218L11.9726 8.10215C12.1877 8.0968 12.3673 8.26766 12.3725 8.48332L13.4347 10.0471ZM13.4347 10.0471C13.6152 9.84495 13.5977 9.53483 13.3956 9.35432C13.1375 9.12381 12.8231 8.96483 12.4822 8.88772L13.4347 10.0471ZM5.70363 11.9999C5.70363 15.4718 8.52805 18.2962 11.9999 18.2962C15.4718 18.2962 18.2962 15.4718 18.2962 11.9999C18.2962 8.52805 15.4718 5.70363 11.9999 5.70363C8.52805 5.70363 5.70363 8.52801 5.70363 11.9999ZM17.315 11.9999C17.315 14.9305 14.9306 17.3149 11.9999 17.3149C9.06929 17.3149 6.68488 14.9305 6.68488 11.9999C6.68488 9.06925 9.06929 6.68484 11.9999 6.68484C14.9306 6.68484 17.315 9.06925 17.315 11.9999Z" fill="#04949D" stroke="#04949D" stroke-width="0.2"/>
</svg>
