<svg width="392" height="150" viewBox="0 0 392 150" fill="none" xmlns="http://www.w3.org/2000/svg">
<rect width="392" height="150" rx="12" fill="white"/>
<g opacity="0.05">
<mask id="mask0_1501_10077" style="mask-type:alpha" maskUnits="userSpaceOnUse" x="0" y="0" width="392" height="150">
<rect width="392" height="150" rx="12" fill="white"/>
</mask>
<g mask="url(#mask0_1501_10077)">
<g style="mix-blend-mode:multiply">
<path d="M85.8059 -121.686L86.0242 -111.9C87.7179 -35.9754 196.15 2.87492 301.251 -34.7855L315.241 -39.7987C413.946 -75.1671 515.624 -38.3141 516.385 33.1054L516.587 52.0759C517.151 104.991 584.681 136.867 661.074 120.276V120.276" stroke="#151A26" stroke-width="0.653416"/>
<path d="M80.7825 -116.215L81.0008 -106.428C82.6945 -30.504 191.126 8.34629 296.228 -29.3142L310.218 -34.3273C408.923 -69.6957 510.601 -32.8428 511.361 38.5768L511.564 57.5473C512.127 110.462 579.658 142.338 656.051 125.748V125.748" stroke="#151A26" stroke-width="0.653416"/>
<path d="M75.762 -110.747L75.9803 -100.961C77.674 -25.0365 186.106 13.8138 291.207 -23.8467L305.197 -28.8598C403.902 -64.2282 505.58 -27.3753 506.341 44.0442L506.543 63.0148C507.107 115.93 574.637 147.806 651.03 131.215V131.215" stroke="#151A26" stroke-width="0.653416"/>
<path d="M70.739 -105.276L70.9573 -95.4894C72.651 -19.5653 181.083 19.285 286.184 -18.3755L300.175 -23.3886C398.879 -58.757 500.557 -21.904 501.318 49.5155L501.52 68.486C502.084 121.401 569.614 153.277 646.007 136.687V136.687" stroke="#151A26" stroke-width="0.653416"/>
<path d="M65.7161 -99.8046L65.9344 -90.0179C67.6281 -14.0938 176.06 24.7565 281.161 -12.904L295.152 -17.9171C393.856 -53.2855 495.534 -16.4325 496.295 54.987L496.497 73.9575C497.061 126.873 564.591 158.748 640.984 142.158V142.158" stroke="#151A26" stroke-width="0.653416"/>
<path d="M60.6931 -94.3352L60.9114 -84.5485C62.6051 -8.62435 171.037 30.2259 276.138 -7.43453L290.129 -12.4477C388.833 -47.8161 490.511 -10.9631 491.272 60.4564L491.474 79.4269C492.038 132.342 559.569 164.218 635.961 147.627V147.627" stroke="#151A26" stroke-width="0.653416"/>
<path d="M55.6726 -88.8657L55.8909 -79.0791C57.5846 -3.15493 166.017 35.6954 271.118 -1.96511L285.108 -6.97825C383.813 -42.3466 485.491 -5.4937 486.252 65.9258L486.454 84.8964C487.017 137.812 554.548 169.687 630.941 153.097V153.097" stroke="#151A26" stroke-width="0.653416"/>
<path d="M50.6497 -83.3944L50.868 -73.6077C52.5617 2.31645 160.994 41.1667 266.095 3.50626L280.085 -1.50688C378.79 -36.8753 480.468 -0.0223239 481.229 71.3972L481.431 90.3677C481.995 143.283 549.525 175.159 625.918 158.568V158.568" stroke="#151A26" stroke-width="0.653416"/>
<path d="M45.6267 -77.9249L45.845 -68.1383C47.5387 7.78587 155.971 46.6362 261.072 8.97568L275.062 3.96255C373.767 -31.4058 475.445 5.4471 476.206 76.8666L476.408 95.8372C476.972 148.752 544.502 180.628 620.895 164.038V164.038" stroke="#151A26" stroke-width="0.653416"/>
<path d="M40.6038 -72.4538L40.8221 -62.6672C42.5158 13.257 150.948 52.1073 256.049 14.4468L270.039 9.43366C368.744 -25.9347 470.422 10.9182 471.183 82.3378L471.385 101.308C471.949 154.223 539.479 186.099 615.872 169.509V169.509" stroke="#151A26" stroke-width="0.653416"/>
<path d="M35.5808 -66.9861L35.7991 -57.1995C37.4928 18.7247 145.925 57.575 251.026 19.9145L265.016 14.9014C363.721 -20.467 465.399 16.3859 466.16 87.8055L466.362 106.776C466.926 159.691 534.456 191.567 610.849 174.977V174.977" stroke="#151A26" stroke-width="0.653416"/>
<path d="M30.5603 -61.5147L30.7786 -51.7281C32.4723 24.1961 140.904 63.0464 246.005 25.3859L259.996 20.3728C358.7 -14.9956 460.378 21.8573 461.139 93.2769L461.341 112.247C461.905 165.163 529.436 197.038 605.829 180.448V180.448" stroke="#151A26" stroke-width="0.653416"/>
<path d="M25.5374 -56.0434L25.7557 -46.2567C27.4494 29.6675 135.881 68.5177 240.982 30.8573L254.973 25.8441C353.677 -9.52425 455.355 27.3287 456.116 98.7482L456.318 117.719C456.882 170.634 524.413 202.51 600.806 185.919V185.919" stroke="#151A26" stroke-width="0.653416"/>
<path d="M20.513 -50.5739L20.7313 -40.7873C22.425 35.1369 130.857 73.9872 235.958 36.3267L249.948 31.3136C348.653 -4.05483 450.331 32.7981 451.092 104.218L451.294 123.188C451.858 176.103 519.388 207.979 595.781 191.389V191.389" stroke="#151A26" stroke-width="0.653416"/>
<path d="M15.4934 -45.1044L15.7117 -35.3177C17.4054 40.6064 125.837 79.4567 230.938 41.7962L244.929 36.7831C343.633 1.41471 445.311 38.2677 446.072 109.687L446.274 128.658C446.838 181.573 514.369 213.449 590.762 196.858V196.858" stroke="#151A26" stroke-width="0.653416"/>
<path d="M10.5872 -39.7639L10.8055 -29.9772C12.4992 45.9469 120.931 84.7972 226.032 47.1368L240.023 42.1236C338.727 6.75523 440.405 43.6082 441.166 115.028L441.368 133.998C441.932 186.913 509.463 218.789 585.855 202.199V202.199" stroke="#151A26" stroke-width="0.653416"/>
<path d="M5.68434 -34.4231L5.90266 -24.6364C7.59634 51.2878 116.028 90.138 221.129 52.4776L235.12 47.4644C333.824 12.096 435.502 48.949 436.263 120.369L436.465 139.339C437.029 192.254 504.56 224.13 580.953 207.54V207.54" stroke="#151A26" stroke-width="0.653416"/>
<path d="M0.781999 -29.0823L1.00032 -19.2957C2.694 56.6285 111.126 95.4788 216.227 57.8183L230.218 52.8052C328.922 17.4368 430.6 54.2897 431.361 125.709L431.563 144.68C432.127 197.595 499.657 229.471 576.05 212.88V212.88" stroke="#151A26" stroke-width="0.653416"/>
<path d="M-4.12279 -23.7396L-3.90447 -13.9529C-2.21079 61.9712 106.221 100.822 211.322 63.161L225.313 58.1479C324.017 22.7795 425.695 59.6325 426.456 131.052L426.658 150.023C427.222 202.938 494.753 234.813 571.145 218.223V218.223" stroke="#151A26" stroke-width="0.653416"/>
<path d="M-9.02464 -18.4008L-8.80633 -8.61419C-7.11264 67.31 101.319 106.16 206.42 68.4998L220.411 63.4867C319.115 28.1183 420.793 64.9712 421.554 136.391L421.756 155.361C422.32 208.276 489.851 240.152 566.244 223.562V223.562" stroke="#151A26" stroke-width="0.653416"/>
<path d="M-13.9275 -13.0581L-13.7092 -3.27142C-12.0155 72.6528 96.4164 111.503 201.518 73.8426L215.508 68.8294C314.213 33.461 415.891 70.314 416.651 141.734L416.854 160.704C417.417 213.619 484.948 245.495 561.341 228.905V228.905" stroke="#151A26" stroke-width="0.653416"/>
<path d="M-18.8342 -7.71737L-18.6159 2.06928C-16.9222 77.9934 91.5097 116.844 196.611 79.1833L210.601 74.1701C309.306 38.8017 410.984 75.6547 411.745 147.074L411.947 166.045C412.511 218.96 480.041 250.836 556.434 234.245V234.245" stroke="#151A26" stroke-width="0.653416"/>
<path d="M-23.7375 -2.37661L-23.5192 7.41004C-21.8255 83.3342 86.6064 122.184 191.708 84.524L205.698 79.5109C304.403 44.1425 406.081 80.9954 406.841 152.415L407.044 171.386C407.607 224.301 475.138 256.176 551.531 239.586V239.586" stroke="#151A26" stroke-width="0.653416"/>
<path d="M-28.6413 2.96415L-28.423 12.7508C-26.7293 88.675 81.7026 127.525 186.804 89.8648L200.794 84.8516C299.499 49.4833 401.177 86.3362 401.938 157.756L402.14 176.726C402.703 229.641 470.234 261.517 546.627 244.927V244.927" stroke="#151A26" stroke-width="0.653416"/>
<path d="M-33.5447 8.30485L-33.3263 18.0915C-31.6327 94.0157 76.7992 132.866 181.9 95.2055L195.891 90.1923C294.595 54.824 396.273 91.6769 397.034 163.096L397.236 182.067C397.8 234.982 465.331 266.858 541.724 250.268V250.268" stroke="#151A26" stroke-width="0.653416"/>
<path d="M-38.447 13.6456L-38.2287 23.4323C-36.535 99.3564 71.8969 138.207 176.998 100.546L190.989 95.5331C289.693 60.1647 391.371 97.0177 392.132 168.437L392.334 187.408C392.898 240.323 460.428 272.199 536.821 255.608V255.608" stroke="#151A26" stroke-width="0.653416"/>
<path d="M-43.3498 18.9844L-43.1315 28.771C-41.4378 104.695 66.9941 143.545 172.095 105.885L186.086 100.872C284.79 65.5035 386.468 102.356 387.229 173.776L387.431 192.746C387.995 245.662 455.526 277.537 531.918 260.947V260.947" stroke="#151A26" stroke-width="0.653416"/>
<path d="M-48.2561 24.3251L-48.0378 34.1118C-46.3441 110.036 62.0878 148.886 167.189 111.226L181.179 106.213C279.884 70.8442 381.562 107.697 382.323 179.117L382.525 198.087C383.089 251.002 450.619 282.878 527.012 266.288V266.288" stroke="#151A26" stroke-width="0.653416"/>
<path d="M-53.1594 29.6659L-52.9411 39.4526C-51.2474 115.377 57.1845 154.227 162.286 116.567L176.276 111.553C274.981 76.185 376.659 113.038 377.42 184.458L377.622 203.428C378.185 256.343 445.716 288.219 522.109 271.629V271.629" stroke="#151A26" stroke-width="0.653416"/>
</g>
</g>
</g>
</svg>
