<svg width="24" height="24" viewBox="0 0 24 24" fill="none" xmlns="http://www.w3.org/2000/svg">
<path d="M15.2788 15.0248L15.2529 14.9886C15.0395 14.6901 14.6728 14.5269 14.2871 14.5792L12.7194 14.7936L12.7194 14.7936L12.7126 14.744C12.4442 14.7808 12.1657 14.74 11.9074 14.626C11.6055 14.493 11.0435 14.2454 10.1416 14.3512L15.2788 15.0248ZM15.2788 15.0248L15.3178 15.0032C15.9029 14.6786 16.6657 14.3073 17.4197 14.1093C18.1755 13.9107 18.9101 13.8894 19.4493 14.2474L19.4769 14.2058L19.4493 14.2474C19.7647 14.4569 19.9254 14.8787 19.9489 15.6503C19.9676 16.2609 19.7417 16.8493 19.3121 17.3073M15.2788 15.0248L19.3121 17.3073M19.3121 17.3073C19.3122 17.3072 19.3123 17.3071 19.3124 17.307L19.348 17.3416M19.3121 17.3073C19.312 17.3074 19.3119 17.3075 19.3118 17.3076L19.348 17.3416M19.348 17.3416C19.3382 17.3517 19.1211 17.5806 16.9303 19.8831L15.2935 14.9595C16.4664 14.3087 18.362 13.4654 19.4769 14.2058C19.8143 14.4298 19.9753 14.8748 19.9989 15.6487C20.018 16.2732 19.7869 16.8744 19.3483 17.3418C19.3379 17.3525 19.3462 17.3436 19.348 17.3416C19.3482 17.3414 19.3484 17.3412 19.3484 17.3412C19.3484 17.3412 19.3483 17.3413 19.348 17.3416ZM18.5647 16.5613L18.5644 16.5616C16.315 18.9256 16.1465 19.1036 16.1463 19.1035L18.5647 16.5613ZM18.5647 16.5613C18.7954 16.3147 18.9183 16.0032 18.9086 15.684C18.899 15.3732 18.8638 15.2121 18.8416 15.1394L18.8351 15.1183L18.8152 15.1089C18.6478 15.0293 18.4233 15.016 18.1705 15.0461C17.9165 15.0763 17.6276 15.1512 17.3267 15.2544C16.7249 15.4609 16.0696 15.7832 15.5401 16.0994L15.5171 16.1132L15.5158 16.14C15.4828 16.8476 15.1201 17.3356 14.5779 17.5439C13.8369 17.8285 13.7898 17.8357 11.0063 18.2489L11.0063 18.2489M18.5647 16.5613L11.0063 18.2489M14.4188 15.6426L14.4306 15.6845C14.4593 15.7866 14.477 15.9061 14.4783 16.0218C14.4795 16.1369 14.4645 16.2522 14.4245 16.3437L14.4188 15.6426ZM14.4188 15.6426L14.3757 15.6485M14.4188 15.6426L14.3757 15.6485M14.3757 15.6485L12.8564 15.8562C12.3935 15.9194 11.9168 15.8509 11.4777 15.6573C11.2413 15.5532 10.8793 15.3938 10.2652 15.4659L14.3757 15.6485ZM11.0063 18.2489C10.7243 18.291 10.4585 18.0903 10.417 17.7953C10.3756 17.5011 10.5744 17.2301 10.8578 17.188L10.8728 17.1858M11.0063 18.2489L10.8728 17.1858M10.8728 17.1858C13.5692 16.7855 13.5768 16.7844 14.2141 16.5396L10.8728 17.1858ZM4.09089 20.8281V20.8781H4.14089H6.22203H6.22207H6.27207V20.8281V15.5193V15.4693H6.22207H4.14089H4.09089V15.5193V20.8281ZM13.3072 20.1832C14.3786 20.2586 15.4402 19.8553 16.1466 19.1027L9.06813 15.6698C8.96994 15.7028 8.90273 15.7376 8.83396 15.7768C8.81844 15.7857 8.80296 15.7947 8.78708 15.804C8.73285 15.8355 8.67402 15.8698 8.59343 15.9096L8.59341 15.9096C8.46138 15.9749 8.26424 16.0281 8.04185 16.0704C7.8205 16.1126 7.57811 16.1434 7.35794 16.1656L7.31296 16.1702V16.2154V19.9414V20.0016L7.37214 19.9906C7.45609 19.9749 7.53397 19.9597 7.60736 19.9454C8.02164 19.8645 8.29294 19.8115 8.70567 19.8598L8.70567 19.8599L8.70799 19.8601L13.3072 20.1832Z" fill="#04949D" stroke="white" stroke-width="0.1"/>
<path d="M18.1239 7.58594C18.1239 10.6397 15.7054 13.1219 12.7356 13.1219C9.7658 13.1219 7.34736 10.6397 7.34736 7.58594C7.34736 4.53216 9.7658 2.05 12.7356 2.05C15.7054 2.05 18.1239 4.53216 18.1239 7.58594ZM17.083 7.58594C17.083 5.12565 15.1341 3.12188 12.7356 3.12188C10.3372 3.12188 8.38826 5.12565 8.38826 7.58594C8.38826 10.0462 10.3372 12.05 12.7356 12.05C15.1341 12.05 17.083 10.0462 17.083 7.58594Z" fill="#04949D" stroke="white" stroke-width="0.1"/>
<path d="M12.2203 10.4135V10.4563V10.5596C12.2203 10.8568 12.4546 11.0955 12.7407 11.0955C13.0269 11.0955 13.2612 10.8568 13.2612 10.5596V10.3934V10.3578L13.2949 10.3461C13.9397 10.1237 14.3538 9.53236 14.4495 8.94749L14.4988 8.95556L14.4495 8.94748C14.5813 8.14212 14.1576 7.41668 13.3942 7.13951C13.1945 7.06701 12.9834 6.98681 12.7919 6.90031C12.601 6.81408 12.4266 6.72029 12.3018 6.61982C12.27 6.59419 12.2507 6.54891 12.2412 6.50183L12.2203 10.4135ZM12.2203 10.4135L12.178 10.4069L12.2203 10.4135ZM14.1674 5.97827L14.1674 5.97827C14.2981 5.72154 14.2064 5.40667 13.9654 5.26457L13.9621 5.26263L13.9622 5.26251C13.7673 5.12659 13.5907 5.00528 13.2974 4.92063L13.2613 4.9102V4.87259V4.78204C13.2613 4.48479 13.027 4.24611 12.7408 4.24611C12.4546 4.24611 12.2204 4.48479 12.2204 4.78204V4.91056V4.94616L12.1867 4.95781C11.6545 5.1421 11.3215 5.60625 11.223 6.10841C11.1244 6.61108 11.2622 7.14319 11.6605 7.46412C12.0216 7.75493 12.5372 7.96495 13.0481 8.15044C13.2284 8.21589 13.3331 8.31787 13.3867 8.43363C13.4395 8.54783 13.4395 8.6691 13.4231 8.76941L13.4231 8.76942C13.3767 9.05301 13.1431 9.36437 12.7374 9.36716C12.7374 9.36716 12.7374 9.36716 12.7373 9.36716L12.737 9.31716L14.1674 5.97827ZM14.1674 5.97827C14.0338 6.24073 13.7197 6.34098 13.4658 6.20468L14.1674 5.97827ZM12.307 6.15057C12.265 6.22223 12.2482 6.29328 12.2421 6.32621L13.355 6.13196C13.1853 6.0118 12.9439 5.84089 12.5297 5.96904C12.4188 6.00335 12.3494 6.07837 12.307 6.15057Z" fill="#04949D" stroke="white" stroke-width="0.1"/>
</svg>
